%TF.GenerationSoftware,KiCad,Pcbnew,8.0.6*%
%TF.CreationDate,2025-01-08T12:00:42-04:00*%
%TF.ProjectId,DC,44432e6b-6963-4616-945f-706362585858,rev?*%
%TF.SameCoordinates,Original*%
%TF.FileFunction,Legend,Top*%
%TF.FilePolarity,Positive*%
%FSLAX46Y46*%
G04 Gerber Fmt 4.6, Leading zero omitted, Abs format (unit mm)*
G04 Created by KiCad (PCBNEW 8.0.6) date 2025-01-08 12:00:42*
%MOMM*%
%LPD*%
G01*
G04 APERTURE LIST*
G04 Aperture macros list*
%AMRoundRect*
0 Rectangle with rounded corners*
0 $1 Rounding radius*
0 $2 $3 $4 $5 $6 $7 $8 $9 X,Y pos of 4 corners*
0 Add a 4 corners polygon primitive as box body*
4,1,4,$2,$3,$4,$5,$6,$7,$8,$9,$2,$3,0*
0 Add four circle primitives for the rounded corners*
1,1,$1+$1,$2,$3*
1,1,$1+$1,$4,$5*
1,1,$1+$1,$6,$7*
1,1,$1+$1,$8,$9*
0 Add four rect primitives between the rounded corners*
20,1,$1+$1,$2,$3,$4,$5,0*
20,1,$1+$1,$4,$5,$6,$7,0*
20,1,$1+$1,$6,$7,$8,$9,0*
20,1,$1+$1,$8,$9,$2,$3,0*%
G04 Aperture macros list end*
%ADD10C,0.100000*%
%ADD11C,0.150000*%
%ADD12C,0.152500*%
%ADD13C,0.076000*%
%ADD14C,0.152400*%
%ADD15C,0.254000*%
%ADD16C,0.000000*%
%ADD17C,0.200000*%
%ADD18C,0.127000*%
%ADD19C,0.120000*%
%ADD20C,2.100000*%
%ADD21C,1.651000*%
%ADD22C,1.600000*%
%ADD23C,2.475500*%
%ADD24C,1.728000*%
%ADD25RoundRect,0.102000X-0.762000X0.762000X-0.762000X-0.762000X0.762000X-0.762000X0.762000X0.762000X0*%
%ADD26C,3.200000*%
%ADD27R,1.600000X1.600000*%
%ADD28O,1.600000X1.600000*%
G04 APERTURE END LIST*
D10*
X75057580Y-154751693D02*
X75057580Y-154180265D01*
X75057580Y-154465979D02*
X76057580Y-154465979D01*
X76057580Y-154465979D02*
X75914723Y-154370741D01*
X75914723Y-154370741D02*
X75819485Y-154275503D01*
X75819485Y-154275503D02*
X75771866Y-154180265D01*
X75724247Y-140686455D02*
X75057580Y-140686455D01*
X76105200Y-140448360D02*
X75390914Y-140210265D01*
X75390914Y-140210265D02*
X75390914Y-140829312D01*
X62595580Y-145766455D02*
X62595580Y-145575979D01*
X62595580Y-145575979D02*
X62547961Y-145480741D01*
X62547961Y-145480741D02*
X62500342Y-145433122D01*
X62500342Y-145433122D02*
X62357485Y-145337884D01*
X62357485Y-145337884D02*
X62167009Y-145290265D01*
X62167009Y-145290265D02*
X61786057Y-145290265D01*
X61786057Y-145290265D02*
X61690819Y-145337884D01*
X61690819Y-145337884D02*
X61643200Y-145385503D01*
X61643200Y-145385503D02*
X61595580Y-145480741D01*
X61595580Y-145480741D02*
X61595580Y-145671217D01*
X61595580Y-145671217D02*
X61643200Y-145766455D01*
X61643200Y-145766455D02*
X61690819Y-145814074D01*
X61690819Y-145814074D02*
X61786057Y-145861693D01*
X61786057Y-145861693D02*
X62024152Y-145861693D01*
X62024152Y-145861693D02*
X62119390Y-145814074D01*
X62119390Y-145814074D02*
X62167009Y-145766455D01*
X62167009Y-145766455D02*
X62214628Y-145671217D01*
X62214628Y-145671217D02*
X62214628Y-145480741D01*
X62214628Y-145480741D02*
X62167009Y-145385503D01*
X62167009Y-145385503D02*
X62119390Y-145337884D01*
X62119390Y-145337884D02*
X62024152Y-145290265D01*
X62595580Y-149814646D02*
X62595580Y-150481312D01*
X62595580Y-150481312D02*
X61595580Y-150052741D01*
X76057580Y-144988646D02*
X76057580Y-145607693D01*
X76057580Y-145607693D02*
X75676628Y-145274360D01*
X75676628Y-145274360D02*
X75676628Y-145417217D01*
X75676628Y-145417217D02*
X75629009Y-145512455D01*
X75629009Y-145512455D02*
X75581390Y-145560074D01*
X75581390Y-145560074D02*
X75486152Y-145607693D01*
X75486152Y-145607693D02*
X75248057Y-145607693D01*
X75248057Y-145607693D02*
X75152819Y-145560074D01*
X75152819Y-145560074D02*
X75105200Y-145512455D01*
X75105200Y-145512455D02*
X75057580Y-145417217D01*
X75057580Y-145417217D02*
X75057580Y-145131503D01*
X75057580Y-145131503D02*
X75105200Y-145036265D01*
X75105200Y-145036265D02*
X75152819Y-144988646D01*
X75962342Y-149608265D02*
X76009961Y-149655884D01*
X76009961Y-149655884D02*
X76057580Y-149751122D01*
X76057580Y-149751122D02*
X76057580Y-149989217D01*
X76057580Y-149989217D02*
X76009961Y-150084455D01*
X76009961Y-150084455D02*
X75962342Y-150132074D01*
X75962342Y-150132074D02*
X75867104Y-150179693D01*
X75867104Y-150179693D02*
X75771866Y-150179693D01*
X75771866Y-150179693D02*
X75629009Y-150132074D01*
X75629009Y-150132074D02*
X75057580Y-149560646D01*
X75057580Y-149560646D02*
X75057580Y-150179693D01*
X62167009Y-154624741D02*
X62214628Y-154529503D01*
X62214628Y-154529503D02*
X62262247Y-154481884D01*
X62262247Y-154481884D02*
X62357485Y-154434265D01*
X62357485Y-154434265D02*
X62405104Y-154434265D01*
X62405104Y-154434265D02*
X62500342Y-154481884D01*
X62500342Y-154481884D02*
X62547961Y-154529503D01*
X62547961Y-154529503D02*
X62595580Y-154624741D01*
X62595580Y-154624741D02*
X62595580Y-154815217D01*
X62595580Y-154815217D02*
X62547961Y-154910455D01*
X62547961Y-154910455D02*
X62500342Y-154958074D01*
X62500342Y-154958074D02*
X62405104Y-155005693D01*
X62405104Y-155005693D02*
X62357485Y-155005693D01*
X62357485Y-155005693D02*
X62262247Y-154958074D01*
X62262247Y-154958074D02*
X62214628Y-154910455D01*
X62214628Y-154910455D02*
X62167009Y-154815217D01*
X62167009Y-154815217D02*
X62167009Y-154624741D01*
X62167009Y-154624741D02*
X62119390Y-154529503D01*
X62119390Y-154529503D02*
X62071771Y-154481884D01*
X62071771Y-154481884D02*
X61976533Y-154434265D01*
X61976533Y-154434265D02*
X61786057Y-154434265D01*
X61786057Y-154434265D02*
X61690819Y-154481884D01*
X61690819Y-154481884D02*
X61643200Y-154529503D01*
X61643200Y-154529503D02*
X61595580Y-154624741D01*
X61595580Y-154624741D02*
X61595580Y-154815217D01*
X61595580Y-154815217D02*
X61643200Y-154910455D01*
X61643200Y-154910455D02*
X61690819Y-154958074D01*
X61690819Y-154958074D02*
X61786057Y-155005693D01*
X61786057Y-155005693D02*
X61976533Y-155005693D01*
X61976533Y-155005693D02*
X62071771Y-154958074D01*
X62071771Y-154958074D02*
X62119390Y-154910455D01*
X62119390Y-154910455D02*
X62167009Y-154815217D01*
X62595580Y-140988074D02*
X62595580Y-140511884D01*
X62595580Y-140511884D02*
X62119390Y-140464265D01*
X62119390Y-140464265D02*
X62167009Y-140511884D01*
X62167009Y-140511884D02*
X62214628Y-140607122D01*
X62214628Y-140607122D02*
X62214628Y-140845217D01*
X62214628Y-140845217D02*
X62167009Y-140940455D01*
X62167009Y-140940455D02*
X62119390Y-140988074D01*
X62119390Y-140988074D02*
X62024152Y-141035693D01*
X62024152Y-141035693D02*
X61786057Y-141035693D01*
X61786057Y-141035693D02*
X61690819Y-140988074D01*
X61690819Y-140988074D02*
X61643200Y-140940455D01*
X61643200Y-140940455D02*
X61595580Y-140845217D01*
X61595580Y-140845217D02*
X61595580Y-140607122D01*
X61595580Y-140607122D02*
X61643200Y-140511884D01*
X61643200Y-140511884D02*
X61690819Y-140464265D01*
X75057580Y-124017693D02*
X75057580Y-123446265D01*
X75057580Y-123731979D02*
X76057580Y-123731979D01*
X76057580Y-123731979D02*
X75914723Y-123636741D01*
X75914723Y-123636741D02*
X75819485Y-123541503D01*
X75819485Y-123541503D02*
X75771866Y-123446265D01*
X75724247Y-109952455D02*
X75057580Y-109952455D01*
X76105200Y-109714360D02*
X75390914Y-109476265D01*
X75390914Y-109476265D02*
X75390914Y-110095312D01*
X61690819Y-113905312D02*
X61643200Y-113857693D01*
X61643200Y-113857693D02*
X61595580Y-113714836D01*
X61595580Y-113714836D02*
X61595580Y-113619598D01*
X61595580Y-113619598D02*
X61643200Y-113476741D01*
X61643200Y-113476741D02*
X61738438Y-113381503D01*
X61738438Y-113381503D02*
X61833676Y-113333884D01*
X61833676Y-113333884D02*
X62024152Y-113286265D01*
X62024152Y-113286265D02*
X62167009Y-113286265D01*
X62167009Y-113286265D02*
X62357485Y-113333884D01*
X62357485Y-113333884D02*
X62452723Y-113381503D01*
X62452723Y-113381503D02*
X62547961Y-113476741D01*
X62547961Y-113476741D02*
X62595580Y-113619598D01*
X62595580Y-113619598D02*
X62595580Y-113714836D01*
X62595580Y-113714836D02*
X62547961Y-113857693D01*
X62547961Y-113857693D02*
X62500342Y-113905312D01*
X61881295Y-114286265D02*
X61881295Y-114762455D01*
X61595580Y-114191027D02*
X62595580Y-114524360D01*
X62595580Y-114524360D02*
X61595580Y-114857693D01*
X61595580Y-115191027D02*
X62595580Y-115191027D01*
X62595580Y-115191027D02*
X61595580Y-115762455D01*
X61595580Y-115762455D02*
X62595580Y-115762455D01*
X61595580Y-116238646D02*
X62595580Y-116238646D01*
X62119390Y-116238646D02*
X62119390Y-116810074D01*
X61595580Y-116810074D02*
X62595580Y-116810074D01*
X62595580Y-118271027D02*
X61595580Y-118604360D01*
X61595580Y-118604360D02*
X62595580Y-118937693D01*
X61690819Y-119842455D02*
X61643200Y-119794836D01*
X61643200Y-119794836D02*
X61595580Y-119651979D01*
X61595580Y-119651979D02*
X61595580Y-119556741D01*
X61595580Y-119556741D02*
X61643200Y-119413884D01*
X61643200Y-119413884D02*
X61738438Y-119318646D01*
X61738438Y-119318646D02*
X61833676Y-119271027D01*
X61833676Y-119271027D02*
X62024152Y-119223408D01*
X62024152Y-119223408D02*
X62167009Y-119223408D01*
X62167009Y-119223408D02*
X62357485Y-119271027D01*
X62357485Y-119271027D02*
X62452723Y-119318646D01*
X62452723Y-119318646D02*
X62547961Y-119413884D01*
X62547961Y-119413884D02*
X62595580Y-119556741D01*
X62595580Y-119556741D02*
X62595580Y-119651979D01*
X62595580Y-119651979D02*
X62547961Y-119794836D01*
X62547961Y-119794836D02*
X62500342Y-119842455D01*
X61690819Y-120842455D02*
X61643200Y-120794836D01*
X61643200Y-120794836D02*
X61595580Y-120651979D01*
X61595580Y-120651979D02*
X61595580Y-120556741D01*
X61595580Y-120556741D02*
X61643200Y-120413884D01*
X61643200Y-120413884D02*
X61738438Y-120318646D01*
X61738438Y-120318646D02*
X61833676Y-120271027D01*
X61833676Y-120271027D02*
X62024152Y-120223408D01*
X62024152Y-120223408D02*
X62167009Y-120223408D01*
X62167009Y-120223408D02*
X62357485Y-120271027D01*
X62357485Y-120271027D02*
X62452723Y-120318646D01*
X62452723Y-120318646D02*
X62547961Y-120413884D01*
X62547961Y-120413884D02*
X62595580Y-120556741D01*
X62595580Y-120556741D02*
X62595580Y-120651979D01*
X62595580Y-120651979D02*
X62547961Y-120794836D01*
X62547961Y-120794836D02*
X62500342Y-120842455D01*
X76057580Y-114254646D02*
X76057580Y-114873693D01*
X76057580Y-114873693D02*
X75676628Y-114540360D01*
X75676628Y-114540360D02*
X75676628Y-114683217D01*
X75676628Y-114683217D02*
X75629009Y-114778455D01*
X75629009Y-114778455D02*
X75581390Y-114826074D01*
X75581390Y-114826074D02*
X75486152Y-114873693D01*
X75486152Y-114873693D02*
X75248057Y-114873693D01*
X75248057Y-114873693D02*
X75152819Y-114826074D01*
X75152819Y-114826074D02*
X75105200Y-114778455D01*
X75105200Y-114778455D02*
X75057580Y-114683217D01*
X75057580Y-114683217D02*
X75057580Y-114397503D01*
X75057580Y-114397503D02*
X75105200Y-114302265D01*
X75105200Y-114302265D02*
X75152819Y-114254646D01*
X75962342Y-118874265D02*
X76009961Y-118921884D01*
X76009961Y-118921884D02*
X76057580Y-119017122D01*
X76057580Y-119017122D02*
X76057580Y-119255217D01*
X76057580Y-119255217D02*
X76009961Y-119350455D01*
X76009961Y-119350455D02*
X75962342Y-119398074D01*
X75962342Y-119398074D02*
X75867104Y-119445693D01*
X75867104Y-119445693D02*
X75771866Y-119445693D01*
X75771866Y-119445693D02*
X75629009Y-119398074D01*
X75629009Y-119398074D02*
X75057580Y-118826646D01*
X75057580Y-118826646D02*
X75057580Y-119445693D01*
X62167009Y-123890741D02*
X62214628Y-123795503D01*
X62214628Y-123795503D02*
X62262247Y-123747884D01*
X62262247Y-123747884D02*
X62357485Y-123700265D01*
X62357485Y-123700265D02*
X62405104Y-123700265D01*
X62405104Y-123700265D02*
X62500342Y-123747884D01*
X62500342Y-123747884D02*
X62547961Y-123795503D01*
X62547961Y-123795503D02*
X62595580Y-123890741D01*
X62595580Y-123890741D02*
X62595580Y-124081217D01*
X62595580Y-124081217D02*
X62547961Y-124176455D01*
X62547961Y-124176455D02*
X62500342Y-124224074D01*
X62500342Y-124224074D02*
X62405104Y-124271693D01*
X62405104Y-124271693D02*
X62357485Y-124271693D01*
X62357485Y-124271693D02*
X62262247Y-124224074D01*
X62262247Y-124224074D02*
X62214628Y-124176455D01*
X62214628Y-124176455D02*
X62167009Y-124081217D01*
X62167009Y-124081217D02*
X62167009Y-123890741D01*
X62167009Y-123890741D02*
X62119390Y-123795503D01*
X62119390Y-123795503D02*
X62071771Y-123747884D01*
X62071771Y-123747884D02*
X61976533Y-123700265D01*
X61976533Y-123700265D02*
X61786057Y-123700265D01*
X61786057Y-123700265D02*
X61690819Y-123747884D01*
X61690819Y-123747884D02*
X61643200Y-123795503D01*
X61643200Y-123795503D02*
X61595580Y-123890741D01*
X61595580Y-123890741D02*
X61595580Y-124081217D01*
X61595580Y-124081217D02*
X61643200Y-124176455D01*
X61643200Y-124176455D02*
X61690819Y-124224074D01*
X61690819Y-124224074D02*
X61786057Y-124271693D01*
X61786057Y-124271693D02*
X61976533Y-124271693D01*
X61976533Y-124271693D02*
X62071771Y-124224074D01*
X62071771Y-124224074D02*
X62119390Y-124176455D01*
X62119390Y-124176455D02*
X62167009Y-124081217D01*
X61690819Y-108807380D02*
X61643200Y-108759761D01*
X61643200Y-108759761D02*
X61595580Y-108616904D01*
X61595580Y-108616904D02*
X61595580Y-108521666D01*
X61595580Y-108521666D02*
X61643200Y-108378809D01*
X61643200Y-108378809D02*
X61738438Y-108283571D01*
X61738438Y-108283571D02*
X61833676Y-108235952D01*
X61833676Y-108235952D02*
X62024152Y-108188333D01*
X62024152Y-108188333D02*
X62167009Y-108188333D01*
X62167009Y-108188333D02*
X62357485Y-108235952D01*
X62357485Y-108235952D02*
X62452723Y-108283571D01*
X62452723Y-108283571D02*
X62547961Y-108378809D01*
X62547961Y-108378809D02*
X62595580Y-108521666D01*
X62595580Y-108521666D02*
X62595580Y-108616904D01*
X62595580Y-108616904D02*
X62547961Y-108759761D01*
X62547961Y-108759761D02*
X62500342Y-108807380D01*
X61881295Y-109188333D02*
X61881295Y-109664523D01*
X61595580Y-109093095D02*
X62595580Y-109426428D01*
X62595580Y-109426428D02*
X61595580Y-109759761D01*
X61595580Y-110093095D02*
X62595580Y-110093095D01*
X62595580Y-110093095D02*
X61595580Y-110664523D01*
X61595580Y-110664523D02*
X62595580Y-110664523D01*
X61595580Y-111616904D02*
X61595580Y-111140714D01*
X61595580Y-111140714D02*
X62595580Y-111140714D01*
X74803580Y-93537693D02*
X74803580Y-92966265D01*
X74803580Y-93251979D02*
X75803580Y-93251979D01*
X75803580Y-93251979D02*
X75660723Y-93156741D01*
X75660723Y-93156741D02*
X75565485Y-93061503D01*
X75565485Y-93061503D02*
X75517866Y-92966265D01*
X75470247Y-79472455D02*
X74803580Y-79472455D01*
X75851200Y-79234360D02*
X75136914Y-78996265D01*
X75136914Y-78996265D02*
X75136914Y-79615312D01*
X62341580Y-84552455D02*
X62341580Y-84361979D01*
X62341580Y-84361979D02*
X62293961Y-84266741D01*
X62293961Y-84266741D02*
X62246342Y-84219122D01*
X62246342Y-84219122D02*
X62103485Y-84123884D01*
X62103485Y-84123884D02*
X61913009Y-84076265D01*
X61913009Y-84076265D02*
X61532057Y-84076265D01*
X61532057Y-84076265D02*
X61436819Y-84123884D01*
X61436819Y-84123884D02*
X61389200Y-84171503D01*
X61389200Y-84171503D02*
X61341580Y-84266741D01*
X61341580Y-84266741D02*
X61341580Y-84457217D01*
X61341580Y-84457217D02*
X61389200Y-84552455D01*
X61389200Y-84552455D02*
X61436819Y-84600074D01*
X61436819Y-84600074D02*
X61532057Y-84647693D01*
X61532057Y-84647693D02*
X61770152Y-84647693D01*
X61770152Y-84647693D02*
X61865390Y-84600074D01*
X61865390Y-84600074D02*
X61913009Y-84552455D01*
X61913009Y-84552455D02*
X61960628Y-84457217D01*
X61960628Y-84457217D02*
X61960628Y-84266741D01*
X61960628Y-84266741D02*
X61913009Y-84171503D01*
X61913009Y-84171503D02*
X61865390Y-84123884D01*
X61865390Y-84123884D02*
X61770152Y-84076265D01*
X62341580Y-88600646D02*
X62341580Y-89267312D01*
X62341580Y-89267312D02*
X61341580Y-88838741D01*
X75803580Y-83774646D02*
X75803580Y-84393693D01*
X75803580Y-84393693D02*
X75422628Y-84060360D01*
X75422628Y-84060360D02*
X75422628Y-84203217D01*
X75422628Y-84203217D02*
X75375009Y-84298455D01*
X75375009Y-84298455D02*
X75327390Y-84346074D01*
X75327390Y-84346074D02*
X75232152Y-84393693D01*
X75232152Y-84393693D02*
X74994057Y-84393693D01*
X74994057Y-84393693D02*
X74898819Y-84346074D01*
X74898819Y-84346074D02*
X74851200Y-84298455D01*
X74851200Y-84298455D02*
X74803580Y-84203217D01*
X74803580Y-84203217D02*
X74803580Y-83917503D01*
X74803580Y-83917503D02*
X74851200Y-83822265D01*
X74851200Y-83822265D02*
X74898819Y-83774646D01*
X75708342Y-88394265D02*
X75755961Y-88441884D01*
X75755961Y-88441884D02*
X75803580Y-88537122D01*
X75803580Y-88537122D02*
X75803580Y-88775217D01*
X75803580Y-88775217D02*
X75755961Y-88870455D01*
X75755961Y-88870455D02*
X75708342Y-88918074D01*
X75708342Y-88918074D02*
X75613104Y-88965693D01*
X75613104Y-88965693D02*
X75517866Y-88965693D01*
X75517866Y-88965693D02*
X75375009Y-88918074D01*
X75375009Y-88918074D02*
X74803580Y-88346646D01*
X74803580Y-88346646D02*
X74803580Y-88965693D01*
X61913009Y-93410741D02*
X61960628Y-93315503D01*
X61960628Y-93315503D02*
X62008247Y-93267884D01*
X62008247Y-93267884D02*
X62103485Y-93220265D01*
X62103485Y-93220265D02*
X62151104Y-93220265D01*
X62151104Y-93220265D02*
X62246342Y-93267884D01*
X62246342Y-93267884D02*
X62293961Y-93315503D01*
X62293961Y-93315503D02*
X62341580Y-93410741D01*
X62341580Y-93410741D02*
X62341580Y-93601217D01*
X62341580Y-93601217D02*
X62293961Y-93696455D01*
X62293961Y-93696455D02*
X62246342Y-93744074D01*
X62246342Y-93744074D02*
X62151104Y-93791693D01*
X62151104Y-93791693D02*
X62103485Y-93791693D01*
X62103485Y-93791693D02*
X62008247Y-93744074D01*
X62008247Y-93744074D02*
X61960628Y-93696455D01*
X61960628Y-93696455D02*
X61913009Y-93601217D01*
X61913009Y-93601217D02*
X61913009Y-93410741D01*
X61913009Y-93410741D02*
X61865390Y-93315503D01*
X61865390Y-93315503D02*
X61817771Y-93267884D01*
X61817771Y-93267884D02*
X61722533Y-93220265D01*
X61722533Y-93220265D02*
X61532057Y-93220265D01*
X61532057Y-93220265D02*
X61436819Y-93267884D01*
X61436819Y-93267884D02*
X61389200Y-93315503D01*
X61389200Y-93315503D02*
X61341580Y-93410741D01*
X61341580Y-93410741D02*
X61341580Y-93601217D01*
X61341580Y-93601217D02*
X61389200Y-93696455D01*
X61389200Y-93696455D02*
X61436819Y-93744074D01*
X61436819Y-93744074D02*
X61532057Y-93791693D01*
X61532057Y-93791693D02*
X61722533Y-93791693D01*
X61722533Y-93791693D02*
X61817771Y-93744074D01*
X61817771Y-93744074D02*
X61865390Y-93696455D01*
X61865390Y-93696455D02*
X61913009Y-93601217D01*
X62341580Y-79774074D02*
X62341580Y-79297884D01*
X62341580Y-79297884D02*
X61865390Y-79250265D01*
X61865390Y-79250265D02*
X61913009Y-79297884D01*
X61913009Y-79297884D02*
X61960628Y-79393122D01*
X61960628Y-79393122D02*
X61960628Y-79631217D01*
X61960628Y-79631217D02*
X61913009Y-79726455D01*
X61913009Y-79726455D02*
X61865390Y-79774074D01*
X61865390Y-79774074D02*
X61770152Y-79821693D01*
X61770152Y-79821693D02*
X61532057Y-79821693D01*
X61532057Y-79821693D02*
X61436819Y-79774074D01*
X61436819Y-79774074D02*
X61389200Y-79726455D01*
X61389200Y-79726455D02*
X61341580Y-79631217D01*
X61341580Y-79631217D02*
X61341580Y-79393122D01*
X61341580Y-79393122D02*
X61389200Y-79297884D01*
X61389200Y-79297884D02*
X61436819Y-79250265D01*
X62167009Y-62930741D02*
X62214628Y-62835503D01*
X62214628Y-62835503D02*
X62262247Y-62787884D01*
X62262247Y-62787884D02*
X62357485Y-62740265D01*
X62357485Y-62740265D02*
X62405104Y-62740265D01*
X62405104Y-62740265D02*
X62500342Y-62787884D01*
X62500342Y-62787884D02*
X62547961Y-62835503D01*
X62547961Y-62835503D02*
X62595580Y-62930741D01*
X62595580Y-62930741D02*
X62595580Y-63121217D01*
X62595580Y-63121217D02*
X62547961Y-63216455D01*
X62547961Y-63216455D02*
X62500342Y-63264074D01*
X62500342Y-63264074D02*
X62405104Y-63311693D01*
X62405104Y-63311693D02*
X62357485Y-63311693D01*
X62357485Y-63311693D02*
X62262247Y-63264074D01*
X62262247Y-63264074D02*
X62214628Y-63216455D01*
X62214628Y-63216455D02*
X62167009Y-63121217D01*
X62167009Y-63121217D02*
X62167009Y-62930741D01*
X62167009Y-62930741D02*
X62119390Y-62835503D01*
X62119390Y-62835503D02*
X62071771Y-62787884D01*
X62071771Y-62787884D02*
X61976533Y-62740265D01*
X61976533Y-62740265D02*
X61786057Y-62740265D01*
X61786057Y-62740265D02*
X61690819Y-62787884D01*
X61690819Y-62787884D02*
X61643200Y-62835503D01*
X61643200Y-62835503D02*
X61595580Y-62930741D01*
X61595580Y-62930741D02*
X61595580Y-63121217D01*
X61595580Y-63121217D02*
X61643200Y-63216455D01*
X61643200Y-63216455D02*
X61690819Y-63264074D01*
X61690819Y-63264074D02*
X61786057Y-63311693D01*
X61786057Y-63311693D02*
X61976533Y-63311693D01*
X61976533Y-63311693D02*
X62071771Y-63264074D01*
X62071771Y-63264074D02*
X62119390Y-63216455D01*
X62119390Y-63216455D02*
X62167009Y-63121217D01*
X62595580Y-49294074D02*
X62595580Y-48817884D01*
X62595580Y-48817884D02*
X62119390Y-48770265D01*
X62119390Y-48770265D02*
X62167009Y-48817884D01*
X62167009Y-48817884D02*
X62214628Y-48913122D01*
X62214628Y-48913122D02*
X62214628Y-49151217D01*
X62214628Y-49151217D02*
X62167009Y-49246455D01*
X62167009Y-49246455D02*
X62119390Y-49294074D01*
X62119390Y-49294074D02*
X62024152Y-49341693D01*
X62024152Y-49341693D02*
X61786057Y-49341693D01*
X61786057Y-49341693D02*
X61690819Y-49294074D01*
X61690819Y-49294074D02*
X61643200Y-49246455D01*
X61643200Y-49246455D02*
X61595580Y-49151217D01*
X61595580Y-49151217D02*
X61595580Y-48913122D01*
X61595580Y-48913122D02*
X61643200Y-48817884D01*
X61643200Y-48817884D02*
X61690819Y-48770265D01*
X62595580Y-54072455D02*
X62595580Y-53881979D01*
X62595580Y-53881979D02*
X62547961Y-53786741D01*
X62547961Y-53786741D02*
X62500342Y-53739122D01*
X62500342Y-53739122D02*
X62357485Y-53643884D01*
X62357485Y-53643884D02*
X62167009Y-53596265D01*
X62167009Y-53596265D02*
X61786057Y-53596265D01*
X61786057Y-53596265D02*
X61690819Y-53643884D01*
X61690819Y-53643884D02*
X61643200Y-53691503D01*
X61643200Y-53691503D02*
X61595580Y-53786741D01*
X61595580Y-53786741D02*
X61595580Y-53977217D01*
X61595580Y-53977217D02*
X61643200Y-54072455D01*
X61643200Y-54072455D02*
X61690819Y-54120074D01*
X61690819Y-54120074D02*
X61786057Y-54167693D01*
X61786057Y-54167693D02*
X62024152Y-54167693D01*
X62024152Y-54167693D02*
X62119390Y-54120074D01*
X62119390Y-54120074D02*
X62167009Y-54072455D01*
X62167009Y-54072455D02*
X62214628Y-53977217D01*
X62214628Y-53977217D02*
X62214628Y-53786741D01*
X62214628Y-53786741D02*
X62167009Y-53691503D01*
X62167009Y-53691503D02*
X62119390Y-53643884D01*
X62119390Y-53643884D02*
X62024152Y-53596265D01*
X62595580Y-58120646D02*
X62595580Y-58787312D01*
X62595580Y-58787312D02*
X61595580Y-58358741D01*
X75724247Y-48992455D02*
X75057580Y-48992455D01*
X76105200Y-48754360D02*
X75390914Y-48516265D01*
X75390914Y-48516265D02*
X75390914Y-49135312D01*
X76057580Y-53294646D02*
X76057580Y-53913693D01*
X76057580Y-53913693D02*
X75676628Y-53580360D01*
X75676628Y-53580360D02*
X75676628Y-53723217D01*
X75676628Y-53723217D02*
X75629009Y-53818455D01*
X75629009Y-53818455D02*
X75581390Y-53866074D01*
X75581390Y-53866074D02*
X75486152Y-53913693D01*
X75486152Y-53913693D02*
X75248057Y-53913693D01*
X75248057Y-53913693D02*
X75152819Y-53866074D01*
X75152819Y-53866074D02*
X75105200Y-53818455D01*
X75105200Y-53818455D02*
X75057580Y-53723217D01*
X75057580Y-53723217D02*
X75057580Y-53437503D01*
X75057580Y-53437503D02*
X75105200Y-53342265D01*
X75105200Y-53342265D02*
X75152819Y-53294646D01*
X75962342Y-57914265D02*
X76009961Y-57961884D01*
X76009961Y-57961884D02*
X76057580Y-58057122D01*
X76057580Y-58057122D02*
X76057580Y-58295217D01*
X76057580Y-58295217D02*
X76009961Y-58390455D01*
X76009961Y-58390455D02*
X75962342Y-58438074D01*
X75962342Y-58438074D02*
X75867104Y-58485693D01*
X75867104Y-58485693D02*
X75771866Y-58485693D01*
X75771866Y-58485693D02*
X75629009Y-58438074D01*
X75629009Y-58438074D02*
X75057580Y-57866646D01*
X75057580Y-57866646D02*
X75057580Y-58485693D01*
X75057580Y-63057693D02*
X75057580Y-62486265D01*
X75057580Y-62771979D02*
X76057580Y-62771979D01*
X76057580Y-62771979D02*
X75914723Y-62676741D01*
X75914723Y-62676741D02*
X75819485Y-62581503D01*
X75819485Y-62581503D02*
X75771866Y-62486265D01*
X58751628Y-110562286D02*
X58680200Y-110490858D01*
X58680200Y-110490858D02*
X58608771Y-110276572D01*
X58608771Y-110276572D02*
X58608771Y-110133715D01*
X58608771Y-110133715D02*
X58680200Y-109919429D01*
X58680200Y-109919429D02*
X58823057Y-109776572D01*
X58823057Y-109776572D02*
X58965914Y-109705143D01*
X58965914Y-109705143D02*
X59251628Y-109633715D01*
X59251628Y-109633715D02*
X59465914Y-109633715D01*
X59465914Y-109633715D02*
X59751628Y-109705143D01*
X59751628Y-109705143D02*
X59894485Y-109776572D01*
X59894485Y-109776572D02*
X60037342Y-109919429D01*
X60037342Y-109919429D02*
X60108771Y-110133715D01*
X60108771Y-110133715D02*
X60108771Y-110276572D01*
X60108771Y-110276572D02*
X60037342Y-110490858D01*
X60037342Y-110490858D02*
X59965914Y-110562286D01*
X59037342Y-111133715D02*
X59037342Y-111848001D01*
X58608771Y-110990858D02*
X60108771Y-111490858D01*
X60108771Y-111490858D02*
X58608771Y-111990858D01*
X58608771Y-112490857D02*
X60108771Y-112490857D01*
X60108771Y-112490857D02*
X58608771Y-113348000D01*
X58608771Y-113348000D02*
X60108771Y-113348000D01*
X60108771Y-114990858D02*
X58608771Y-115490858D01*
X58608771Y-115490858D02*
X60108771Y-115990858D01*
X58751628Y-117348000D02*
X58680200Y-117276572D01*
X58680200Y-117276572D02*
X58608771Y-117062286D01*
X58608771Y-117062286D02*
X58608771Y-116919429D01*
X58608771Y-116919429D02*
X58680200Y-116705143D01*
X58680200Y-116705143D02*
X58823057Y-116562286D01*
X58823057Y-116562286D02*
X58965914Y-116490857D01*
X58965914Y-116490857D02*
X59251628Y-116419429D01*
X59251628Y-116419429D02*
X59465914Y-116419429D01*
X59465914Y-116419429D02*
X59751628Y-116490857D01*
X59751628Y-116490857D02*
X59894485Y-116562286D01*
X59894485Y-116562286D02*
X60037342Y-116705143D01*
X60037342Y-116705143D02*
X60108771Y-116919429D01*
X60108771Y-116919429D02*
X60108771Y-117062286D01*
X60108771Y-117062286D02*
X60037342Y-117276572D01*
X60037342Y-117276572D02*
X59965914Y-117348000D01*
X58751628Y-118848000D02*
X58680200Y-118776572D01*
X58680200Y-118776572D02*
X58608771Y-118562286D01*
X58608771Y-118562286D02*
X58608771Y-118419429D01*
X58608771Y-118419429D02*
X58680200Y-118205143D01*
X58680200Y-118205143D02*
X58823057Y-118062286D01*
X58823057Y-118062286D02*
X58965914Y-117990857D01*
X58965914Y-117990857D02*
X59251628Y-117919429D01*
X59251628Y-117919429D02*
X59465914Y-117919429D01*
X59465914Y-117919429D02*
X59751628Y-117990857D01*
X59751628Y-117990857D02*
X59894485Y-118062286D01*
X59894485Y-118062286D02*
X60037342Y-118205143D01*
X60037342Y-118205143D02*
X60108771Y-118419429D01*
X60108771Y-118419429D02*
X60108771Y-118562286D01*
X60108771Y-118562286D02*
X60037342Y-118776572D01*
X60037342Y-118776572D02*
X59965914Y-118848000D01*
X60037342Y-121419429D02*
X60108771Y-121276572D01*
X60108771Y-121276572D02*
X60108771Y-121062286D01*
X60108771Y-121062286D02*
X60037342Y-120848000D01*
X60037342Y-120848000D02*
X59894485Y-120705143D01*
X59894485Y-120705143D02*
X59751628Y-120633714D01*
X59751628Y-120633714D02*
X59465914Y-120562286D01*
X59465914Y-120562286D02*
X59251628Y-120562286D01*
X59251628Y-120562286D02*
X58965914Y-120633714D01*
X58965914Y-120633714D02*
X58823057Y-120705143D01*
X58823057Y-120705143D02*
X58680200Y-120848000D01*
X58680200Y-120848000D02*
X58608771Y-121062286D01*
X58608771Y-121062286D02*
X58608771Y-121205143D01*
X58608771Y-121205143D02*
X58680200Y-121419429D01*
X58680200Y-121419429D02*
X58751628Y-121490857D01*
X58751628Y-121490857D02*
X59251628Y-121490857D01*
X59251628Y-121490857D02*
X59251628Y-121205143D01*
X58680200Y-122705143D02*
X58608771Y-122562286D01*
X58608771Y-122562286D02*
X58608771Y-122276572D01*
X58608771Y-122276572D02*
X58680200Y-122133714D01*
X58680200Y-122133714D02*
X58823057Y-122062286D01*
X58823057Y-122062286D02*
X59394485Y-122062286D01*
X59394485Y-122062286D02*
X59537342Y-122133714D01*
X59537342Y-122133714D02*
X59608771Y-122276572D01*
X59608771Y-122276572D02*
X59608771Y-122562286D01*
X59608771Y-122562286D02*
X59537342Y-122705143D01*
X59537342Y-122705143D02*
X59394485Y-122776572D01*
X59394485Y-122776572D02*
X59251628Y-122776572D01*
X59251628Y-122776572D02*
X59108771Y-122062286D01*
X58608771Y-124062286D02*
X59394485Y-124062286D01*
X59394485Y-124062286D02*
X59537342Y-123990857D01*
X59537342Y-123990857D02*
X59608771Y-123848000D01*
X59608771Y-123848000D02*
X59608771Y-123562286D01*
X59608771Y-123562286D02*
X59537342Y-123419428D01*
X58680200Y-124062286D02*
X58608771Y-123919428D01*
X58608771Y-123919428D02*
X58608771Y-123562286D01*
X58608771Y-123562286D02*
X58680200Y-123419428D01*
X58680200Y-123419428D02*
X58823057Y-123348000D01*
X58823057Y-123348000D02*
X58965914Y-123348000D01*
X58965914Y-123348000D02*
X59108771Y-123419428D01*
X59108771Y-123419428D02*
X59180200Y-123562286D01*
X59180200Y-123562286D02*
X59180200Y-123919428D01*
X59180200Y-123919428D02*
X59251628Y-124062286D01*
X58608771Y-124776571D02*
X59608771Y-124776571D01*
X59323057Y-124776571D02*
X59465914Y-124848000D01*
X59465914Y-124848000D02*
X59537342Y-124919429D01*
X59537342Y-124919429D02*
X59608771Y-125062286D01*
X59608771Y-125062286D02*
X59608771Y-125205143D01*
X59394485Y-81657713D02*
X59394485Y-82157713D01*
X58608771Y-82371999D02*
X58608771Y-81657713D01*
X58608771Y-81657713D02*
X60108771Y-81657713D01*
X60108771Y-81657713D02*
X60108771Y-82371999D01*
X58608771Y-82871999D02*
X59608771Y-83657714D01*
X59608771Y-82871999D02*
X58608771Y-83657714D01*
X59608771Y-84014857D02*
X59608771Y-84586285D01*
X60108771Y-84229142D02*
X58823057Y-84229142D01*
X58823057Y-84229142D02*
X58680200Y-84300571D01*
X58680200Y-84300571D02*
X58608771Y-84443428D01*
X58608771Y-84443428D02*
X58608771Y-84586285D01*
X58608771Y-85086285D02*
X59608771Y-85086285D01*
X59323057Y-85086285D02*
X59465914Y-85157714D01*
X59465914Y-85157714D02*
X59537342Y-85229143D01*
X59537342Y-85229143D02*
X59608771Y-85372000D01*
X59608771Y-85372000D02*
X59608771Y-85514857D01*
X58608771Y-86657714D02*
X59394485Y-86657714D01*
X59394485Y-86657714D02*
X59537342Y-86586285D01*
X59537342Y-86586285D02*
X59608771Y-86443428D01*
X59608771Y-86443428D02*
X59608771Y-86157714D01*
X59608771Y-86157714D02*
X59537342Y-86014856D01*
X58680200Y-86657714D02*
X58608771Y-86514856D01*
X58608771Y-86514856D02*
X58608771Y-86157714D01*
X58608771Y-86157714D02*
X58680200Y-86014856D01*
X58680200Y-86014856D02*
X58823057Y-85943428D01*
X58823057Y-85943428D02*
X58965914Y-85943428D01*
X58965914Y-85943428D02*
X59108771Y-86014856D01*
X59108771Y-86014856D02*
X59180200Y-86157714D01*
X59180200Y-86157714D02*
X59180200Y-86514856D01*
X59180200Y-86514856D02*
X59251628Y-86657714D01*
X58608771Y-88514856D02*
X60108771Y-88514856D01*
X60108771Y-88514856D02*
X60108771Y-89086285D01*
X60108771Y-89086285D02*
X60037342Y-89229142D01*
X60037342Y-89229142D02*
X59965914Y-89300571D01*
X59965914Y-89300571D02*
X59823057Y-89371999D01*
X59823057Y-89371999D02*
X59608771Y-89371999D01*
X59608771Y-89371999D02*
X59465914Y-89300571D01*
X59465914Y-89300571D02*
X59394485Y-89229142D01*
X59394485Y-89229142D02*
X59323057Y-89086285D01*
X59323057Y-89086285D02*
X59323057Y-88514856D01*
X58608771Y-90014856D02*
X59608771Y-90014856D01*
X60108771Y-90014856D02*
X60037342Y-89943428D01*
X60037342Y-89943428D02*
X59965914Y-90014856D01*
X59965914Y-90014856D02*
X60037342Y-90086285D01*
X60037342Y-90086285D02*
X60108771Y-90014856D01*
X60108771Y-90014856D02*
X59965914Y-90014856D01*
X59608771Y-90729142D02*
X58608771Y-90729142D01*
X59465914Y-90729142D02*
X59537342Y-90800571D01*
X59537342Y-90800571D02*
X59608771Y-90943428D01*
X59608771Y-90943428D02*
X59608771Y-91157714D01*
X59608771Y-91157714D02*
X59537342Y-91300571D01*
X59537342Y-91300571D02*
X59394485Y-91372000D01*
X59394485Y-91372000D02*
X58608771Y-91372000D01*
X58680200Y-92014857D02*
X58608771Y-92157714D01*
X58608771Y-92157714D02*
X58608771Y-92443428D01*
X58608771Y-92443428D02*
X58680200Y-92586285D01*
X58680200Y-92586285D02*
X58823057Y-92657714D01*
X58823057Y-92657714D02*
X58894485Y-92657714D01*
X58894485Y-92657714D02*
X59037342Y-92586285D01*
X59037342Y-92586285D02*
X59108771Y-92443428D01*
X59108771Y-92443428D02*
X59108771Y-92229143D01*
X59108771Y-92229143D02*
X59180200Y-92086285D01*
X59180200Y-92086285D02*
X59323057Y-92014857D01*
X59323057Y-92014857D02*
X59394485Y-92014857D01*
X59394485Y-92014857D02*
X59537342Y-92086285D01*
X59537342Y-92086285D02*
X59608771Y-92229143D01*
X59608771Y-92229143D02*
X59608771Y-92443428D01*
X59608771Y-92443428D02*
X59537342Y-92586285D01*
X58608771Y-145288285D02*
X58608771Y-144573999D01*
X58608771Y-144573999D02*
X60108771Y-144573999D01*
X58608771Y-145788285D02*
X59608771Y-145788285D01*
X60108771Y-145788285D02*
X60037342Y-145716857D01*
X60037342Y-145716857D02*
X59965914Y-145788285D01*
X59965914Y-145788285D02*
X60037342Y-145859714D01*
X60037342Y-145859714D02*
X60108771Y-145788285D01*
X60108771Y-145788285D02*
X59965914Y-145788285D01*
X59608771Y-147145429D02*
X58394485Y-147145429D01*
X58394485Y-147145429D02*
X58251628Y-147074000D01*
X58251628Y-147074000D02*
X58180200Y-147002571D01*
X58180200Y-147002571D02*
X58108771Y-146859714D01*
X58108771Y-146859714D02*
X58108771Y-146645429D01*
X58108771Y-146645429D02*
X58180200Y-146502571D01*
X58680200Y-147145429D02*
X58608771Y-147002571D01*
X58608771Y-147002571D02*
X58608771Y-146716857D01*
X58608771Y-146716857D02*
X58680200Y-146574000D01*
X58680200Y-146574000D02*
X58751628Y-146502571D01*
X58751628Y-146502571D02*
X58894485Y-146431143D01*
X58894485Y-146431143D02*
X59323057Y-146431143D01*
X59323057Y-146431143D02*
X59465914Y-146502571D01*
X59465914Y-146502571D02*
X59537342Y-146574000D01*
X59537342Y-146574000D02*
X59608771Y-146716857D01*
X59608771Y-146716857D02*
X59608771Y-147002571D01*
X59608771Y-147002571D02*
X59537342Y-147145429D01*
X58608771Y-147859714D02*
X60108771Y-147859714D01*
X58608771Y-148502572D02*
X59394485Y-148502572D01*
X59394485Y-148502572D02*
X59537342Y-148431143D01*
X59537342Y-148431143D02*
X59608771Y-148288286D01*
X59608771Y-148288286D02*
X59608771Y-148074000D01*
X59608771Y-148074000D02*
X59537342Y-147931143D01*
X59537342Y-147931143D02*
X59465914Y-147859714D01*
X59608771Y-149002572D02*
X59608771Y-149574000D01*
X60108771Y-149216857D02*
X58823057Y-149216857D01*
X58823057Y-149216857D02*
X58680200Y-149288286D01*
X58680200Y-149288286D02*
X58608771Y-149431143D01*
X58608771Y-149431143D02*
X58608771Y-149574000D01*
X58680200Y-150002572D02*
X58608771Y-150145429D01*
X58608771Y-150145429D02*
X58608771Y-150431143D01*
X58608771Y-150431143D02*
X58680200Y-150574000D01*
X58680200Y-150574000D02*
X58823057Y-150645429D01*
X58823057Y-150645429D02*
X58894485Y-150645429D01*
X58894485Y-150645429D02*
X59037342Y-150574000D01*
X59037342Y-150574000D02*
X59108771Y-150431143D01*
X59108771Y-150431143D02*
X59108771Y-150216858D01*
X59108771Y-150216858D02*
X59180200Y-150074000D01*
X59180200Y-150074000D02*
X59323057Y-150002572D01*
X59323057Y-150002572D02*
X59394485Y-150002572D01*
X59394485Y-150002572D02*
X59537342Y-150074000D01*
X59537342Y-150074000D02*
X59608771Y-150216858D01*
X59608771Y-150216858D02*
X59608771Y-150431143D01*
X59608771Y-150431143D02*
X59537342Y-150574000D01*
X59608771Y-50373646D02*
X59608771Y-50945074D01*
X60108771Y-50587931D02*
X58823057Y-50587931D01*
X58823057Y-50587931D02*
X58680200Y-50659360D01*
X58680200Y-50659360D02*
X58608771Y-50802217D01*
X58608771Y-50802217D02*
X58608771Y-50945074D01*
X58608771Y-51659360D02*
X58680200Y-51516503D01*
X58680200Y-51516503D02*
X58751628Y-51445074D01*
X58751628Y-51445074D02*
X58894485Y-51373646D01*
X58894485Y-51373646D02*
X59323057Y-51373646D01*
X59323057Y-51373646D02*
X59465914Y-51445074D01*
X59465914Y-51445074D02*
X59537342Y-51516503D01*
X59537342Y-51516503D02*
X59608771Y-51659360D01*
X59608771Y-51659360D02*
X59608771Y-51873646D01*
X59608771Y-51873646D02*
X59537342Y-52016503D01*
X59537342Y-52016503D02*
X59465914Y-52087932D01*
X59465914Y-52087932D02*
X59323057Y-52159360D01*
X59323057Y-52159360D02*
X58894485Y-52159360D01*
X58894485Y-52159360D02*
X58751628Y-52087932D01*
X58751628Y-52087932D02*
X58680200Y-52016503D01*
X58680200Y-52016503D02*
X58608771Y-51873646D01*
X58608771Y-51873646D02*
X58608771Y-51659360D01*
X59394485Y-54445074D02*
X59323057Y-54659360D01*
X59323057Y-54659360D02*
X59251628Y-54730789D01*
X59251628Y-54730789D02*
X59108771Y-54802217D01*
X59108771Y-54802217D02*
X58894485Y-54802217D01*
X58894485Y-54802217D02*
X58751628Y-54730789D01*
X58751628Y-54730789D02*
X58680200Y-54659360D01*
X58680200Y-54659360D02*
X58608771Y-54516503D01*
X58608771Y-54516503D02*
X58608771Y-53945074D01*
X58608771Y-53945074D02*
X60108771Y-53945074D01*
X60108771Y-53945074D02*
X60108771Y-54445074D01*
X60108771Y-54445074D02*
X60037342Y-54587932D01*
X60037342Y-54587932D02*
X59965914Y-54659360D01*
X59965914Y-54659360D02*
X59823057Y-54730789D01*
X59823057Y-54730789D02*
X59680200Y-54730789D01*
X59680200Y-54730789D02*
X59537342Y-54659360D01*
X59537342Y-54659360D02*
X59465914Y-54587932D01*
X59465914Y-54587932D02*
X59394485Y-54445074D01*
X59394485Y-54445074D02*
X59394485Y-53945074D01*
X59608771Y-56087932D02*
X58608771Y-56087932D01*
X59608771Y-55445074D02*
X58823057Y-55445074D01*
X58823057Y-55445074D02*
X58680200Y-55516503D01*
X58680200Y-55516503D02*
X58608771Y-55659360D01*
X58608771Y-55659360D02*
X58608771Y-55873646D01*
X58608771Y-55873646D02*
X58680200Y-56016503D01*
X58680200Y-56016503D02*
X58751628Y-56087932D01*
X59608771Y-56587932D02*
X59608771Y-57159360D01*
X60108771Y-56802217D02*
X58823057Y-56802217D01*
X58823057Y-56802217D02*
X58680200Y-56873646D01*
X58680200Y-56873646D02*
X58608771Y-57016503D01*
X58608771Y-57016503D02*
X58608771Y-57159360D01*
X59608771Y-57445075D02*
X59608771Y-58016503D01*
X60108771Y-57659360D02*
X58823057Y-57659360D01*
X58823057Y-57659360D02*
X58680200Y-57730789D01*
X58680200Y-57730789D02*
X58608771Y-57873646D01*
X58608771Y-57873646D02*
X58608771Y-58016503D01*
X58608771Y-58730789D02*
X58680200Y-58587932D01*
X58680200Y-58587932D02*
X58751628Y-58516503D01*
X58751628Y-58516503D02*
X58894485Y-58445075D01*
X58894485Y-58445075D02*
X59323057Y-58445075D01*
X59323057Y-58445075D02*
X59465914Y-58516503D01*
X59465914Y-58516503D02*
X59537342Y-58587932D01*
X59537342Y-58587932D02*
X59608771Y-58730789D01*
X59608771Y-58730789D02*
X59608771Y-58945075D01*
X59608771Y-58945075D02*
X59537342Y-59087932D01*
X59537342Y-59087932D02*
X59465914Y-59159361D01*
X59465914Y-59159361D02*
X59323057Y-59230789D01*
X59323057Y-59230789D02*
X58894485Y-59230789D01*
X58894485Y-59230789D02*
X58751628Y-59159361D01*
X58751628Y-59159361D02*
X58680200Y-59087932D01*
X58680200Y-59087932D02*
X58608771Y-58945075D01*
X58608771Y-58945075D02*
X58608771Y-58730789D01*
X59608771Y-59873646D02*
X58608771Y-59873646D01*
X59465914Y-59873646D02*
X59537342Y-59945075D01*
X59537342Y-59945075D02*
X59608771Y-60087932D01*
X59608771Y-60087932D02*
X59608771Y-60302218D01*
X59608771Y-60302218D02*
X59537342Y-60445075D01*
X59537342Y-60445075D02*
X59394485Y-60516504D01*
X59394485Y-60516504D02*
X58608771Y-60516504D01*
X58680200Y-61159361D02*
X58608771Y-61302218D01*
X58608771Y-61302218D02*
X58608771Y-61587932D01*
X58608771Y-61587932D02*
X58680200Y-61730789D01*
X58680200Y-61730789D02*
X58823057Y-61802218D01*
X58823057Y-61802218D02*
X58894485Y-61802218D01*
X58894485Y-61802218D02*
X59037342Y-61730789D01*
X59037342Y-61730789D02*
X59108771Y-61587932D01*
X59108771Y-61587932D02*
X59108771Y-61373647D01*
X59108771Y-61373647D02*
X59180200Y-61230789D01*
X59180200Y-61230789D02*
X59323057Y-61159361D01*
X59323057Y-61159361D02*
X59394485Y-61159361D01*
X59394485Y-61159361D02*
X59537342Y-61230789D01*
X59537342Y-61230789D02*
X59608771Y-61373647D01*
X59608771Y-61373647D02*
X59608771Y-61587932D01*
X59608771Y-61587932D02*
X59537342Y-61730789D01*
D11*
X170746009Y-132413333D02*
X170746009Y-132746666D01*
X171269819Y-132746666D02*
X170269819Y-132746666D01*
X170269819Y-132746666D02*
X170269819Y-132270476D01*
X170269819Y-131460952D02*
X170269819Y-131651428D01*
X170269819Y-131651428D02*
X170317438Y-131746666D01*
X170317438Y-131746666D02*
X170365057Y-131794285D01*
X170365057Y-131794285D02*
X170507914Y-131889523D01*
X170507914Y-131889523D02*
X170698390Y-131937142D01*
X170698390Y-131937142D02*
X171079342Y-131937142D01*
X171079342Y-131937142D02*
X171174580Y-131889523D01*
X171174580Y-131889523D02*
X171222200Y-131841904D01*
X171222200Y-131841904D02*
X171269819Y-131746666D01*
X171269819Y-131746666D02*
X171269819Y-131556190D01*
X171269819Y-131556190D02*
X171222200Y-131460952D01*
X171222200Y-131460952D02*
X171174580Y-131413333D01*
X171174580Y-131413333D02*
X171079342Y-131365714D01*
X171079342Y-131365714D02*
X170841247Y-131365714D01*
X170841247Y-131365714D02*
X170746009Y-131413333D01*
X170746009Y-131413333D02*
X170698390Y-131460952D01*
X170698390Y-131460952D02*
X170650771Y-131556190D01*
X170650771Y-131556190D02*
X170650771Y-131746666D01*
X170650771Y-131746666D02*
X170698390Y-131841904D01*
X170698390Y-131841904D02*
X170746009Y-131889523D01*
X170746009Y-131889523D02*
X170841247Y-131937142D01*
X119925180Y-138938095D02*
X119115657Y-138938095D01*
X119115657Y-138938095D02*
X119020419Y-138985714D01*
X119020419Y-138985714D02*
X118972800Y-139033333D01*
X118972800Y-139033333D02*
X118925180Y-139128571D01*
X118925180Y-139128571D02*
X118925180Y-139319047D01*
X118925180Y-139319047D02*
X118972800Y-139414285D01*
X118972800Y-139414285D02*
X119020419Y-139461904D01*
X119020419Y-139461904D02*
X119115657Y-139509523D01*
X119115657Y-139509523D02*
X119925180Y-139509523D01*
X119591847Y-140414285D02*
X118925180Y-140414285D01*
X119972800Y-140176190D02*
X119258514Y-139938095D01*
X119258514Y-139938095D02*
X119258514Y-140557142D01*
X87989580Y-48426666D02*
X88037200Y-48474285D01*
X88037200Y-48474285D02*
X88084819Y-48617142D01*
X88084819Y-48617142D02*
X88084819Y-48712380D01*
X88084819Y-48712380D02*
X88037200Y-48855237D01*
X88037200Y-48855237D02*
X87941961Y-48950475D01*
X87941961Y-48950475D02*
X87846723Y-48998094D01*
X87846723Y-48998094D02*
X87656247Y-49045713D01*
X87656247Y-49045713D02*
X87513390Y-49045713D01*
X87513390Y-49045713D02*
X87322914Y-48998094D01*
X87322914Y-48998094D02*
X87227676Y-48950475D01*
X87227676Y-48950475D02*
X87132438Y-48855237D01*
X87132438Y-48855237D02*
X87084819Y-48712380D01*
X87084819Y-48712380D02*
X87084819Y-48617142D01*
X87084819Y-48617142D02*
X87132438Y-48474285D01*
X87132438Y-48474285D02*
X87180057Y-48426666D01*
X87084819Y-47521904D02*
X87084819Y-47998094D01*
X87084819Y-47998094D02*
X87561009Y-48045713D01*
X87561009Y-48045713D02*
X87513390Y-47998094D01*
X87513390Y-47998094D02*
X87465771Y-47902856D01*
X87465771Y-47902856D02*
X87465771Y-47664761D01*
X87465771Y-47664761D02*
X87513390Y-47569523D01*
X87513390Y-47569523D02*
X87561009Y-47521904D01*
X87561009Y-47521904D02*
X87656247Y-47474285D01*
X87656247Y-47474285D02*
X87894342Y-47474285D01*
X87894342Y-47474285D02*
X87989580Y-47521904D01*
X87989580Y-47521904D02*
X88037200Y-47569523D01*
X88037200Y-47569523D02*
X88084819Y-47664761D01*
X88084819Y-47664761D02*
X88084819Y-47902856D01*
X88084819Y-47902856D02*
X88037200Y-47998094D01*
X88037200Y-47998094D02*
X87989580Y-48045713D01*
X87989580Y-63666666D02*
X88037200Y-63714285D01*
X88037200Y-63714285D02*
X88084819Y-63857142D01*
X88084819Y-63857142D02*
X88084819Y-63952380D01*
X88084819Y-63952380D02*
X88037200Y-64095237D01*
X88037200Y-64095237D02*
X87941961Y-64190475D01*
X87941961Y-64190475D02*
X87846723Y-64238094D01*
X87846723Y-64238094D02*
X87656247Y-64285713D01*
X87656247Y-64285713D02*
X87513390Y-64285713D01*
X87513390Y-64285713D02*
X87322914Y-64238094D01*
X87322914Y-64238094D02*
X87227676Y-64190475D01*
X87227676Y-64190475D02*
X87132438Y-64095237D01*
X87132438Y-64095237D02*
X87084819Y-63952380D01*
X87084819Y-63952380D02*
X87084819Y-63857142D01*
X87084819Y-63857142D02*
X87132438Y-63714285D01*
X87132438Y-63714285D02*
X87180057Y-63666666D01*
X87084819Y-62809523D02*
X87084819Y-62999999D01*
X87084819Y-62999999D02*
X87132438Y-63095237D01*
X87132438Y-63095237D02*
X87180057Y-63142856D01*
X87180057Y-63142856D02*
X87322914Y-63238094D01*
X87322914Y-63238094D02*
X87513390Y-63285713D01*
X87513390Y-63285713D02*
X87894342Y-63285713D01*
X87894342Y-63285713D02*
X87989580Y-63238094D01*
X87989580Y-63238094D02*
X88037200Y-63190475D01*
X88037200Y-63190475D02*
X88084819Y-63095237D01*
X88084819Y-63095237D02*
X88084819Y-62904761D01*
X88084819Y-62904761D02*
X88037200Y-62809523D01*
X88037200Y-62809523D02*
X87989580Y-62761904D01*
X87989580Y-62761904D02*
X87894342Y-62714285D01*
X87894342Y-62714285D02*
X87656247Y-62714285D01*
X87656247Y-62714285D02*
X87561009Y-62761904D01*
X87561009Y-62761904D02*
X87513390Y-62809523D01*
X87513390Y-62809523D02*
X87465771Y-62904761D01*
X87465771Y-62904761D02*
X87465771Y-63095237D01*
X87465771Y-63095237D02*
X87513390Y-63190475D01*
X87513390Y-63190475D02*
X87561009Y-63238094D01*
X87561009Y-63238094D02*
X87656247Y-63285713D01*
X72763095Y-46174819D02*
X72763095Y-45651009D01*
X72763095Y-45651009D02*
X72715476Y-45555771D01*
X72715476Y-45555771D02*
X72620238Y-45508152D01*
X72620238Y-45508152D02*
X72429762Y-45508152D01*
X72429762Y-45508152D02*
X72334524Y-45555771D01*
X72763095Y-46127200D02*
X72667857Y-46174819D01*
X72667857Y-46174819D02*
X72429762Y-46174819D01*
X72429762Y-46174819D02*
X72334524Y-46127200D01*
X72334524Y-46127200D02*
X72286905Y-46031961D01*
X72286905Y-46031961D02*
X72286905Y-45936723D01*
X72286905Y-45936723D02*
X72334524Y-45841485D01*
X72334524Y-45841485D02*
X72429762Y-45793866D01*
X72429762Y-45793866D02*
X72667857Y-45793866D01*
X72667857Y-45793866D02*
X72763095Y-45746247D01*
X73191667Y-45270057D02*
X73239286Y-45222438D01*
X73239286Y-45222438D02*
X73334524Y-45174819D01*
X73334524Y-45174819D02*
X73572619Y-45174819D01*
X73572619Y-45174819D02*
X73667857Y-45222438D01*
X73667857Y-45222438D02*
X73715476Y-45270057D01*
X73715476Y-45270057D02*
X73763095Y-45365295D01*
X73763095Y-45365295D02*
X73763095Y-45460533D01*
X73763095Y-45460533D02*
X73715476Y-45603390D01*
X73715476Y-45603390D02*
X73144048Y-46174819D01*
X73144048Y-46174819D02*
X73763095Y-46174819D01*
X87989580Y-124626666D02*
X88037200Y-124674285D01*
X88037200Y-124674285D02*
X88084819Y-124817142D01*
X88084819Y-124817142D02*
X88084819Y-124912380D01*
X88084819Y-124912380D02*
X88037200Y-125055237D01*
X88037200Y-125055237D02*
X87941961Y-125150475D01*
X87941961Y-125150475D02*
X87846723Y-125198094D01*
X87846723Y-125198094D02*
X87656247Y-125245713D01*
X87656247Y-125245713D02*
X87513390Y-125245713D01*
X87513390Y-125245713D02*
X87322914Y-125198094D01*
X87322914Y-125198094D02*
X87227676Y-125150475D01*
X87227676Y-125150475D02*
X87132438Y-125055237D01*
X87132438Y-125055237D02*
X87084819Y-124912380D01*
X87084819Y-124912380D02*
X87084819Y-124817142D01*
X87084819Y-124817142D02*
X87132438Y-124674285D01*
X87132438Y-124674285D02*
X87180057Y-124626666D01*
X88084819Y-123674285D02*
X88084819Y-124245713D01*
X88084819Y-123959999D02*
X87084819Y-123959999D01*
X87084819Y-123959999D02*
X87227676Y-124055237D01*
X87227676Y-124055237D02*
X87322914Y-124150475D01*
X87322914Y-124150475D02*
X87370533Y-124245713D01*
X87952580Y-109386666D02*
X88000200Y-109434285D01*
X88000200Y-109434285D02*
X88047819Y-109577142D01*
X88047819Y-109577142D02*
X88047819Y-109672380D01*
X88047819Y-109672380D02*
X88000200Y-109815237D01*
X88000200Y-109815237D02*
X87904961Y-109910475D01*
X87904961Y-109910475D02*
X87809723Y-109958094D01*
X87809723Y-109958094D02*
X87619247Y-110005713D01*
X87619247Y-110005713D02*
X87476390Y-110005713D01*
X87476390Y-110005713D02*
X87285914Y-109958094D01*
X87285914Y-109958094D02*
X87190676Y-109910475D01*
X87190676Y-109910475D02*
X87095438Y-109815237D01*
X87095438Y-109815237D02*
X87047819Y-109672380D01*
X87047819Y-109672380D02*
X87047819Y-109577142D01*
X87047819Y-109577142D02*
X87095438Y-109434285D01*
X87095438Y-109434285D02*
X87143057Y-109386666D01*
X87143057Y-109005713D02*
X87095438Y-108958094D01*
X87095438Y-108958094D02*
X87047819Y-108862856D01*
X87047819Y-108862856D02*
X87047819Y-108624761D01*
X87047819Y-108624761D02*
X87095438Y-108529523D01*
X87095438Y-108529523D02*
X87143057Y-108481904D01*
X87143057Y-108481904D02*
X87238295Y-108434285D01*
X87238295Y-108434285D02*
X87333533Y-108434285D01*
X87333533Y-108434285D02*
X87476390Y-108481904D01*
X87476390Y-108481904D02*
X88047819Y-109053332D01*
X88047819Y-109053332D02*
X88047819Y-108434285D01*
X87989580Y-78906666D02*
X88037200Y-78954285D01*
X88037200Y-78954285D02*
X88084819Y-79097142D01*
X88084819Y-79097142D02*
X88084819Y-79192380D01*
X88084819Y-79192380D02*
X88037200Y-79335237D01*
X88037200Y-79335237D02*
X87941961Y-79430475D01*
X87941961Y-79430475D02*
X87846723Y-79478094D01*
X87846723Y-79478094D02*
X87656247Y-79525713D01*
X87656247Y-79525713D02*
X87513390Y-79525713D01*
X87513390Y-79525713D02*
X87322914Y-79478094D01*
X87322914Y-79478094D02*
X87227676Y-79430475D01*
X87227676Y-79430475D02*
X87132438Y-79335237D01*
X87132438Y-79335237D02*
X87084819Y-79192380D01*
X87084819Y-79192380D02*
X87084819Y-79097142D01*
X87084819Y-79097142D02*
X87132438Y-78954285D01*
X87132438Y-78954285D02*
X87180057Y-78906666D01*
X87418152Y-78049523D02*
X88084819Y-78049523D01*
X87037200Y-78287618D02*
X87751485Y-78525713D01*
X87751485Y-78525713D02*
X87751485Y-77906666D01*
X140724819Y-124626666D02*
X140248628Y-124959999D01*
X140724819Y-125198094D02*
X139724819Y-125198094D01*
X139724819Y-125198094D02*
X139724819Y-124817142D01*
X139724819Y-124817142D02*
X139772438Y-124721904D01*
X139772438Y-124721904D02*
X139820057Y-124674285D01*
X139820057Y-124674285D02*
X139915295Y-124626666D01*
X139915295Y-124626666D02*
X140058152Y-124626666D01*
X140058152Y-124626666D02*
X140153390Y-124674285D01*
X140153390Y-124674285D02*
X140201009Y-124721904D01*
X140201009Y-124721904D02*
X140248628Y-124817142D01*
X140248628Y-124817142D02*
X140248628Y-125198094D01*
X140724819Y-123674285D02*
X140724819Y-124245713D01*
X140724819Y-123959999D02*
X139724819Y-123959999D01*
X139724819Y-123959999D02*
X139867676Y-124055237D01*
X139867676Y-124055237D02*
X139962914Y-124150475D01*
X139962914Y-124150475D02*
X140010533Y-124245713D01*
X135165180Y-138938095D02*
X134355657Y-138938095D01*
X134355657Y-138938095D02*
X134260419Y-138985714D01*
X134260419Y-138985714D02*
X134212800Y-139033333D01*
X134212800Y-139033333D02*
X134165180Y-139128571D01*
X134165180Y-139128571D02*
X134165180Y-139319047D01*
X134165180Y-139319047D02*
X134212800Y-139414285D01*
X134212800Y-139414285D02*
X134260419Y-139461904D01*
X134260419Y-139461904D02*
X134355657Y-139509523D01*
X134355657Y-139509523D02*
X135165180Y-139509523D01*
X135069942Y-139938095D02*
X135117561Y-139985714D01*
X135117561Y-139985714D02*
X135165180Y-140080952D01*
X135165180Y-140080952D02*
X135165180Y-140319047D01*
X135165180Y-140319047D02*
X135117561Y-140414285D01*
X135117561Y-140414285D02*
X135069942Y-140461904D01*
X135069942Y-140461904D02*
X134974704Y-140509523D01*
X134974704Y-140509523D02*
X134879466Y-140509523D01*
X134879466Y-140509523D02*
X134736609Y-140461904D01*
X134736609Y-140461904D02*
X134165180Y-139890476D01*
X134165180Y-139890476D02*
X134165180Y-140509523D01*
X82304819Y-109386666D02*
X81828628Y-109719999D01*
X82304819Y-109958094D02*
X81304819Y-109958094D01*
X81304819Y-109958094D02*
X81304819Y-109577142D01*
X81304819Y-109577142D02*
X81352438Y-109481904D01*
X81352438Y-109481904D02*
X81400057Y-109434285D01*
X81400057Y-109434285D02*
X81495295Y-109386666D01*
X81495295Y-109386666D02*
X81638152Y-109386666D01*
X81638152Y-109386666D02*
X81733390Y-109434285D01*
X81733390Y-109434285D02*
X81781009Y-109481904D01*
X81781009Y-109481904D02*
X81828628Y-109577142D01*
X81828628Y-109577142D02*
X81828628Y-109958094D01*
X81304819Y-109053332D02*
X81304819Y-108386666D01*
X81304819Y-108386666D02*
X82304819Y-108815237D01*
X121586666Y-149394759D02*
X121253333Y-149394759D01*
X121253333Y-149918569D02*
X121253333Y-148918569D01*
X121253333Y-148918569D02*
X121729523Y-148918569D01*
X122539047Y-149251902D02*
X122539047Y-149918569D01*
X122300952Y-148870950D02*
X122062857Y-149585235D01*
X122062857Y-149585235D02*
X122681904Y-149585235D01*
X82304819Y-94196166D02*
X81828628Y-94529499D01*
X82304819Y-94767594D02*
X81304819Y-94767594D01*
X81304819Y-94767594D02*
X81304819Y-94386642D01*
X81304819Y-94386642D02*
X81352438Y-94291404D01*
X81352438Y-94291404D02*
X81400057Y-94243785D01*
X81400057Y-94243785D02*
X81495295Y-94196166D01*
X81495295Y-94196166D02*
X81638152Y-94196166D01*
X81638152Y-94196166D02*
X81733390Y-94243785D01*
X81733390Y-94243785D02*
X81781009Y-94291404D01*
X81781009Y-94291404D02*
X81828628Y-94386642D01*
X81828628Y-94386642D02*
X81828628Y-94767594D01*
X81733390Y-93624737D02*
X81685771Y-93719975D01*
X81685771Y-93719975D02*
X81638152Y-93767594D01*
X81638152Y-93767594D02*
X81542914Y-93815213D01*
X81542914Y-93815213D02*
X81495295Y-93815213D01*
X81495295Y-93815213D02*
X81400057Y-93767594D01*
X81400057Y-93767594D02*
X81352438Y-93719975D01*
X81352438Y-93719975D02*
X81304819Y-93624737D01*
X81304819Y-93624737D02*
X81304819Y-93434261D01*
X81304819Y-93434261D02*
X81352438Y-93339023D01*
X81352438Y-93339023D02*
X81400057Y-93291404D01*
X81400057Y-93291404D02*
X81495295Y-93243785D01*
X81495295Y-93243785D02*
X81542914Y-93243785D01*
X81542914Y-93243785D02*
X81638152Y-93291404D01*
X81638152Y-93291404D02*
X81685771Y-93339023D01*
X81685771Y-93339023D02*
X81733390Y-93434261D01*
X81733390Y-93434261D02*
X81733390Y-93624737D01*
X81733390Y-93624737D02*
X81781009Y-93719975D01*
X81781009Y-93719975D02*
X81828628Y-93767594D01*
X81828628Y-93767594D02*
X81923866Y-93815213D01*
X81923866Y-93815213D02*
X82114342Y-93815213D01*
X82114342Y-93815213D02*
X82209580Y-93767594D01*
X82209580Y-93767594D02*
X82257200Y-93719975D01*
X82257200Y-93719975D02*
X82304819Y-93624737D01*
X82304819Y-93624737D02*
X82304819Y-93434261D01*
X82304819Y-93434261D02*
X82257200Y-93339023D01*
X82257200Y-93339023D02*
X82209580Y-93291404D01*
X82209580Y-93291404D02*
X82114342Y-93243785D01*
X82114342Y-93243785D02*
X81923866Y-93243785D01*
X81923866Y-93243785D02*
X81828628Y-93291404D01*
X81828628Y-93291404D02*
X81781009Y-93339023D01*
X81781009Y-93339023D02*
X81733390Y-93434261D01*
X159554759Y-132413333D02*
X159554759Y-132746666D01*
X160078569Y-132746666D02*
X159078569Y-132746666D01*
X159078569Y-132746666D02*
X159078569Y-132270476D01*
X160078569Y-131365714D02*
X160078569Y-131937142D01*
X160078569Y-131651428D02*
X159078569Y-131651428D01*
X159078569Y-131651428D02*
X159221426Y-131746666D01*
X159221426Y-131746666D02*
X159316664Y-131841904D01*
X159316664Y-131841904D02*
X159364283Y-131937142D01*
X82304819Y-140482857D02*
X81828628Y-140816190D01*
X82304819Y-141054285D02*
X81304819Y-141054285D01*
X81304819Y-141054285D02*
X81304819Y-140673333D01*
X81304819Y-140673333D02*
X81352438Y-140578095D01*
X81352438Y-140578095D02*
X81400057Y-140530476D01*
X81400057Y-140530476D02*
X81495295Y-140482857D01*
X81495295Y-140482857D02*
X81638152Y-140482857D01*
X81638152Y-140482857D02*
X81733390Y-140530476D01*
X81733390Y-140530476D02*
X81781009Y-140578095D01*
X81781009Y-140578095D02*
X81828628Y-140673333D01*
X81828628Y-140673333D02*
X81828628Y-141054285D01*
X82304819Y-139530476D02*
X82304819Y-140101904D01*
X82304819Y-139816190D02*
X81304819Y-139816190D01*
X81304819Y-139816190D02*
X81447676Y-139911428D01*
X81447676Y-139911428D02*
X81542914Y-140006666D01*
X81542914Y-140006666D02*
X81590533Y-140101904D01*
X81638152Y-138673333D02*
X82304819Y-138673333D01*
X81257200Y-138911428D02*
X81971485Y-139149523D01*
X81971485Y-139149523D02*
X81971485Y-138530476D01*
X82304819Y-78906666D02*
X81828628Y-79239999D01*
X82304819Y-79478094D02*
X81304819Y-79478094D01*
X81304819Y-79478094D02*
X81304819Y-79097142D01*
X81304819Y-79097142D02*
X81352438Y-79001904D01*
X81352438Y-79001904D02*
X81400057Y-78954285D01*
X81400057Y-78954285D02*
X81495295Y-78906666D01*
X81495295Y-78906666D02*
X81638152Y-78906666D01*
X81638152Y-78906666D02*
X81733390Y-78954285D01*
X81733390Y-78954285D02*
X81781009Y-79001904D01*
X81781009Y-79001904D02*
X81828628Y-79097142D01*
X81828628Y-79097142D02*
X81828628Y-79478094D01*
X82304819Y-78430475D02*
X82304819Y-78239999D01*
X82304819Y-78239999D02*
X82257200Y-78144761D01*
X82257200Y-78144761D02*
X82209580Y-78097142D01*
X82209580Y-78097142D02*
X82066723Y-78001904D01*
X82066723Y-78001904D02*
X81876247Y-77954285D01*
X81876247Y-77954285D02*
X81495295Y-77954285D01*
X81495295Y-77954285D02*
X81400057Y-78001904D01*
X81400057Y-78001904D02*
X81352438Y-78049523D01*
X81352438Y-78049523D02*
X81304819Y-78144761D01*
X81304819Y-78144761D02*
X81304819Y-78335237D01*
X81304819Y-78335237D02*
X81352438Y-78430475D01*
X81352438Y-78430475D02*
X81400057Y-78478094D01*
X81400057Y-78478094D02*
X81495295Y-78525713D01*
X81495295Y-78525713D02*
X81733390Y-78525713D01*
X81733390Y-78525713D02*
X81828628Y-78478094D01*
X81828628Y-78478094D02*
X81876247Y-78430475D01*
X81876247Y-78430475D02*
X81923866Y-78335237D01*
X81923866Y-78335237D02*
X81923866Y-78144761D01*
X81923866Y-78144761D02*
X81876247Y-78049523D01*
X81876247Y-78049523D02*
X81828628Y-78001904D01*
X81828628Y-78001904D02*
X81733390Y-77954285D01*
X72763095Y-76654819D02*
X72763095Y-76131009D01*
X72763095Y-76131009D02*
X72715476Y-76035771D01*
X72715476Y-76035771D02*
X72620238Y-75988152D01*
X72620238Y-75988152D02*
X72429762Y-75988152D01*
X72429762Y-75988152D02*
X72334524Y-76035771D01*
X72763095Y-76607200D02*
X72667857Y-76654819D01*
X72667857Y-76654819D02*
X72429762Y-76654819D01*
X72429762Y-76654819D02*
X72334524Y-76607200D01*
X72334524Y-76607200D02*
X72286905Y-76511961D01*
X72286905Y-76511961D02*
X72286905Y-76416723D01*
X72286905Y-76416723D02*
X72334524Y-76321485D01*
X72334524Y-76321485D02*
X72429762Y-76273866D01*
X72429762Y-76273866D02*
X72667857Y-76273866D01*
X72667857Y-76273866D02*
X72763095Y-76226247D01*
X73667857Y-75988152D02*
X73667857Y-76654819D01*
X73429762Y-75607200D02*
X73191667Y-76321485D01*
X73191667Y-76321485D02*
X73810714Y-76321485D01*
X112305180Y-138938095D02*
X111495657Y-138938095D01*
X111495657Y-138938095D02*
X111400419Y-138985714D01*
X111400419Y-138985714D02*
X111352800Y-139033333D01*
X111352800Y-139033333D02*
X111305180Y-139128571D01*
X111305180Y-139128571D02*
X111305180Y-139319047D01*
X111305180Y-139319047D02*
X111352800Y-139414285D01*
X111352800Y-139414285D02*
X111400419Y-139461904D01*
X111400419Y-139461904D02*
X111495657Y-139509523D01*
X111495657Y-139509523D02*
X112305180Y-139509523D01*
X112305180Y-139890476D02*
X112305180Y-140509523D01*
X112305180Y-140509523D02*
X111924228Y-140176190D01*
X111924228Y-140176190D02*
X111924228Y-140319047D01*
X111924228Y-140319047D02*
X111876609Y-140414285D01*
X111876609Y-140414285D02*
X111828990Y-140461904D01*
X111828990Y-140461904D02*
X111733752Y-140509523D01*
X111733752Y-140509523D02*
X111495657Y-140509523D01*
X111495657Y-140509523D02*
X111400419Y-140461904D01*
X111400419Y-140461904D02*
X111352800Y-140414285D01*
X111352800Y-140414285D02*
X111305180Y-140319047D01*
X111305180Y-140319047D02*
X111305180Y-140033333D01*
X111305180Y-140033333D02*
X111352800Y-139938095D01*
X111352800Y-139938095D02*
X111400419Y-139890476D01*
X87989580Y-94146666D02*
X88037200Y-94194285D01*
X88037200Y-94194285D02*
X88084819Y-94337142D01*
X88084819Y-94337142D02*
X88084819Y-94432380D01*
X88084819Y-94432380D02*
X88037200Y-94575237D01*
X88037200Y-94575237D02*
X87941961Y-94670475D01*
X87941961Y-94670475D02*
X87846723Y-94718094D01*
X87846723Y-94718094D02*
X87656247Y-94765713D01*
X87656247Y-94765713D02*
X87513390Y-94765713D01*
X87513390Y-94765713D02*
X87322914Y-94718094D01*
X87322914Y-94718094D02*
X87227676Y-94670475D01*
X87227676Y-94670475D02*
X87132438Y-94575237D01*
X87132438Y-94575237D02*
X87084819Y-94432380D01*
X87084819Y-94432380D02*
X87084819Y-94337142D01*
X87084819Y-94337142D02*
X87132438Y-94194285D01*
X87132438Y-94194285D02*
X87180057Y-94146666D01*
X87084819Y-93813332D02*
X87084819Y-93194285D01*
X87084819Y-93194285D02*
X87465771Y-93527618D01*
X87465771Y-93527618D02*
X87465771Y-93384761D01*
X87465771Y-93384761D02*
X87513390Y-93289523D01*
X87513390Y-93289523D02*
X87561009Y-93241904D01*
X87561009Y-93241904D02*
X87656247Y-93194285D01*
X87656247Y-93194285D02*
X87894342Y-93194285D01*
X87894342Y-93194285D02*
X87989580Y-93241904D01*
X87989580Y-93241904D02*
X88037200Y-93289523D01*
X88037200Y-93289523D02*
X88084819Y-93384761D01*
X88084819Y-93384761D02*
X88084819Y-93670475D01*
X88084819Y-93670475D02*
X88037200Y-93765713D01*
X88037200Y-93765713D02*
X87989580Y-93813332D01*
X82304819Y-64142857D02*
X81828628Y-64476190D01*
X82304819Y-64714285D02*
X81304819Y-64714285D01*
X81304819Y-64714285D02*
X81304819Y-64333333D01*
X81304819Y-64333333D02*
X81352438Y-64238095D01*
X81352438Y-64238095D02*
X81400057Y-64190476D01*
X81400057Y-64190476D02*
X81495295Y-64142857D01*
X81495295Y-64142857D02*
X81638152Y-64142857D01*
X81638152Y-64142857D02*
X81733390Y-64190476D01*
X81733390Y-64190476D02*
X81781009Y-64238095D01*
X81781009Y-64238095D02*
X81828628Y-64333333D01*
X81828628Y-64333333D02*
X81828628Y-64714285D01*
X82304819Y-63190476D02*
X82304819Y-63761904D01*
X82304819Y-63476190D02*
X81304819Y-63476190D01*
X81304819Y-63476190D02*
X81447676Y-63571428D01*
X81447676Y-63571428D02*
X81542914Y-63666666D01*
X81542914Y-63666666D02*
X81590533Y-63761904D01*
X82304819Y-62238095D02*
X82304819Y-62809523D01*
X82304819Y-62523809D02*
X81304819Y-62523809D01*
X81304819Y-62523809D02*
X81447676Y-62619047D01*
X81447676Y-62619047D02*
X81542914Y-62714285D01*
X81542914Y-62714285D02*
X81590533Y-62809523D01*
X142785180Y-138938095D02*
X141975657Y-138938095D01*
X141975657Y-138938095D02*
X141880419Y-138985714D01*
X141880419Y-138985714D02*
X141832800Y-139033333D01*
X141832800Y-139033333D02*
X141785180Y-139128571D01*
X141785180Y-139128571D02*
X141785180Y-139319047D01*
X141785180Y-139319047D02*
X141832800Y-139414285D01*
X141832800Y-139414285D02*
X141880419Y-139461904D01*
X141880419Y-139461904D02*
X141975657Y-139509523D01*
X141975657Y-139509523D02*
X142785180Y-139509523D01*
X141785180Y-140509523D02*
X141785180Y-139938095D01*
X141785180Y-140223809D02*
X142785180Y-140223809D01*
X142785180Y-140223809D02*
X142642323Y-140128571D01*
X142642323Y-140128571D02*
X142547085Y-140033333D01*
X142547085Y-140033333D02*
X142499466Y-139938095D01*
X82369819Y-124626666D02*
X81893628Y-124959999D01*
X82369819Y-125198094D02*
X81369819Y-125198094D01*
X81369819Y-125198094D02*
X81369819Y-124817142D01*
X81369819Y-124817142D02*
X81417438Y-124721904D01*
X81417438Y-124721904D02*
X81465057Y-124674285D01*
X81465057Y-124674285D02*
X81560295Y-124626666D01*
X81560295Y-124626666D02*
X81703152Y-124626666D01*
X81703152Y-124626666D02*
X81798390Y-124674285D01*
X81798390Y-124674285D02*
X81846009Y-124721904D01*
X81846009Y-124721904D02*
X81893628Y-124817142D01*
X81893628Y-124817142D02*
X81893628Y-125198094D01*
X81369819Y-123769523D02*
X81369819Y-123959999D01*
X81369819Y-123959999D02*
X81417438Y-124055237D01*
X81417438Y-124055237D02*
X81465057Y-124102856D01*
X81465057Y-124102856D02*
X81607914Y-124198094D01*
X81607914Y-124198094D02*
X81798390Y-124245713D01*
X81798390Y-124245713D02*
X82179342Y-124245713D01*
X82179342Y-124245713D02*
X82274580Y-124198094D01*
X82274580Y-124198094D02*
X82322200Y-124150475D01*
X82322200Y-124150475D02*
X82369819Y-124055237D01*
X82369819Y-124055237D02*
X82369819Y-123864761D01*
X82369819Y-123864761D02*
X82322200Y-123769523D01*
X82322200Y-123769523D02*
X82274580Y-123721904D01*
X82274580Y-123721904D02*
X82179342Y-123674285D01*
X82179342Y-123674285D02*
X81941247Y-123674285D01*
X81941247Y-123674285D02*
X81846009Y-123721904D01*
X81846009Y-123721904D02*
X81798390Y-123769523D01*
X81798390Y-123769523D02*
X81750771Y-123864761D01*
X81750771Y-123864761D02*
X81750771Y-124055237D01*
X81750771Y-124055237D02*
X81798390Y-124150475D01*
X81798390Y-124150475D02*
X81846009Y-124198094D01*
X81846009Y-124198094D02*
X81941247Y-124245713D01*
X95069819Y-125102857D02*
X94593628Y-125436190D01*
X95069819Y-125674285D02*
X94069819Y-125674285D01*
X94069819Y-125674285D02*
X94069819Y-125293333D01*
X94069819Y-125293333D02*
X94117438Y-125198095D01*
X94117438Y-125198095D02*
X94165057Y-125150476D01*
X94165057Y-125150476D02*
X94260295Y-125102857D01*
X94260295Y-125102857D02*
X94403152Y-125102857D01*
X94403152Y-125102857D02*
X94498390Y-125150476D01*
X94498390Y-125150476D02*
X94546009Y-125198095D01*
X94546009Y-125198095D02*
X94593628Y-125293333D01*
X94593628Y-125293333D02*
X94593628Y-125674285D01*
X95069819Y-124150476D02*
X95069819Y-124721904D01*
X95069819Y-124436190D02*
X94069819Y-124436190D01*
X94069819Y-124436190D02*
X94212676Y-124531428D01*
X94212676Y-124531428D02*
X94307914Y-124626666D01*
X94307914Y-124626666D02*
X94355533Y-124721904D01*
X94165057Y-123769523D02*
X94117438Y-123721904D01*
X94117438Y-123721904D02*
X94069819Y-123626666D01*
X94069819Y-123626666D02*
X94069819Y-123388571D01*
X94069819Y-123388571D02*
X94117438Y-123293333D01*
X94117438Y-123293333D02*
X94165057Y-123245714D01*
X94165057Y-123245714D02*
X94260295Y-123198095D01*
X94260295Y-123198095D02*
X94355533Y-123198095D01*
X94355533Y-123198095D02*
X94498390Y-123245714D01*
X94498390Y-123245714D02*
X95069819Y-123817142D01*
X95069819Y-123817142D02*
X95069819Y-123198095D01*
X99382580Y-139866666D02*
X99430200Y-139914285D01*
X99430200Y-139914285D02*
X99477819Y-140057142D01*
X99477819Y-140057142D02*
X99477819Y-140152380D01*
X99477819Y-140152380D02*
X99430200Y-140295237D01*
X99430200Y-140295237D02*
X99334961Y-140390475D01*
X99334961Y-140390475D02*
X99239723Y-140438094D01*
X99239723Y-140438094D02*
X99049247Y-140485713D01*
X99049247Y-140485713D02*
X98906390Y-140485713D01*
X98906390Y-140485713D02*
X98715914Y-140438094D01*
X98715914Y-140438094D02*
X98620676Y-140390475D01*
X98620676Y-140390475D02*
X98525438Y-140295237D01*
X98525438Y-140295237D02*
X98477819Y-140152380D01*
X98477819Y-140152380D02*
X98477819Y-140057142D01*
X98477819Y-140057142D02*
X98525438Y-139914285D01*
X98525438Y-139914285D02*
X98573057Y-139866666D01*
X98477819Y-139533332D02*
X98477819Y-138866666D01*
X98477819Y-138866666D02*
X99477819Y-139295237D01*
X135614819Y-76961904D02*
X136424342Y-76961904D01*
X136424342Y-76961904D02*
X136519580Y-76914285D01*
X136519580Y-76914285D02*
X136567200Y-76866666D01*
X136567200Y-76866666D02*
X136614819Y-76771428D01*
X136614819Y-76771428D02*
X136614819Y-76580952D01*
X136614819Y-76580952D02*
X136567200Y-76485714D01*
X136567200Y-76485714D02*
X136519580Y-76438095D01*
X136519580Y-76438095D02*
X136424342Y-76390476D01*
X136424342Y-76390476D02*
X135614819Y-76390476D01*
X135614819Y-76009523D02*
X135614819Y-75342857D01*
X135614819Y-75342857D02*
X136614819Y-75771428D01*
X133104819Y-124626666D02*
X132628628Y-124959999D01*
X133104819Y-125198094D02*
X132104819Y-125198094D01*
X132104819Y-125198094D02*
X132104819Y-124817142D01*
X132104819Y-124817142D02*
X132152438Y-124721904D01*
X132152438Y-124721904D02*
X132200057Y-124674285D01*
X132200057Y-124674285D02*
X132295295Y-124626666D01*
X132295295Y-124626666D02*
X132438152Y-124626666D01*
X132438152Y-124626666D02*
X132533390Y-124674285D01*
X132533390Y-124674285D02*
X132581009Y-124721904D01*
X132581009Y-124721904D02*
X132628628Y-124817142D01*
X132628628Y-124817142D02*
X132628628Y-125198094D01*
X132200057Y-124245713D02*
X132152438Y-124198094D01*
X132152438Y-124198094D02*
X132104819Y-124102856D01*
X132104819Y-124102856D02*
X132104819Y-123864761D01*
X132104819Y-123864761D02*
X132152438Y-123769523D01*
X132152438Y-123769523D02*
X132200057Y-123721904D01*
X132200057Y-123721904D02*
X132295295Y-123674285D01*
X132295295Y-123674285D02*
X132390533Y-123674285D01*
X132390533Y-123674285D02*
X132533390Y-123721904D01*
X132533390Y-123721904D02*
X133104819Y-124293332D01*
X133104819Y-124293332D02*
X133104819Y-123674285D01*
X100149819Y-125102857D02*
X99673628Y-125436190D01*
X100149819Y-125674285D02*
X99149819Y-125674285D01*
X99149819Y-125674285D02*
X99149819Y-125293333D01*
X99149819Y-125293333D02*
X99197438Y-125198095D01*
X99197438Y-125198095D02*
X99245057Y-125150476D01*
X99245057Y-125150476D02*
X99340295Y-125102857D01*
X99340295Y-125102857D02*
X99483152Y-125102857D01*
X99483152Y-125102857D02*
X99578390Y-125150476D01*
X99578390Y-125150476D02*
X99626009Y-125198095D01*
X99626009Y-125198095D02*
X99673628Y-125293333D01*
X99673628Y-125293333D02*
X99673628Y-125674285D01*
X100149819Y-124150476D02*
X100149819Y-124721904D01*
X100149819Y-124436190D02*
X99149819Y-124436190D01*
X99149819Y-124436190D02*
X99292676Y-124531428D01*
X99292676Y-124531428D02*
X99387914Y-124626666D01*
X99387914Y-124626666D02*
X99435533Y-124721904D01*
X99149819Y-123817142D02*
X99149819Y-123198095D01*
X99149819Y-123198095D02*
X99530771Y-123531428D01*
X99530771Y-123531428D02*
X99530771Y-123388571D01*
X99530771Y-123388571D02*
X99578390Y-123293333D01*
X99578390Y-123293333D02*
X99626009Y-123245714D01*
X99626009Y-123245714D02*
X99721247Y-123198095D01*
X99721247Y-123198095D02*
X99959342Y-123198095D01*
X99959342Y-123198095D02*
X100054580Y-123245714D01*
X100054580Y-123245714D02*
X100102200Y-123293333D01*
X100102200Y-123293333D02*
X100149819Y-123388571D01*
X100149819Y-123388571D02*
X100149819Y-123674285D01*
X100149819Y-123674285D02*
X100102200Y-123769523D01*
X100102200Y-123769523D02*
X100054580Y-123817142D01*
X72763095Y-137614819D02*
X72763095Y-137091009D01*
X72763095Y-137091009D02*
X72715476Y-136995771D01*
X72715476Y-136995771D02*
X72620238Y-136948152D01*
X72620238Y-136948152D02*
X72429762Y-136948152D01*
X72429762Y-136948152D02*
X72334524Y-136995771D01*
X72763095Y-137567200D02*
X72667857Y-137614819D01*
X72667857Y-137614819D02*
X72429762Y-137614819D01*
X72429762Y-137614819D02*
X72334524Y-137567200D01*
X72334524Y-137567200D02*
X72286905Y-137471961D01*
X72286905Y-137471961D02*
X72286905Y-137376723D01*
X72286905Y-137376723D02*
X72334524Y-137281485D01*
X72334524Y-137281485D02*
X72429762Y-137233866D01*
X72429762Y-137233866D02*
X72667857Y-137233866D01*
X72667857Y-137233866D02*
X72763095Y-137186247D01*
X73763095Y-137614819D02*
X73191667Y-137614819D01*
X73477381Y-137614819D02*
X73477381Y-136614819D01*
X73477381Y-136614819D02*
X73382143Y-136757676D01*
X73382143Y-136757676D02*
X73286905Y-136852914D01*
X73286905Y-136852914D02*
X73191667Y-136900533D01*
X91948095Y-145284819D02*
X91948095Y-146094342D01*
X91948095Y-146094342D02*
X91995714Y-146189580D01*
X91995714Y-146189580D02*
X92043333Y-146237200D01*
X92043333Y-146237200D02*
X92138571Y-146284819D01*
X92138571Y-146284819D02*
X92329047Y-146284819D01*
X92329047Y-146284819D02*
X92424285Y-146237200D01*
X92424285Y-146237200D02*
X92471904Y-146189580D01*
X92471904Y-146189580D02*
X92519523Y-146094342D01*
X92519523Y-146094342D02*
X92519523Y-145284819D01*
X93424285Y-145284819D02*
X93233809Y-145284819D01*
X93233809Y-145284819D02*
X93138571Y-145332438D01*
X93138571Y-145332438D02*
X93090952Y-145380057D01*
X93090952Y-145380057D02*
X92995714Y-145522914D01*
X92995714Y-145522914D02*
X92948095Y-145713390D01*
X92948095Y-145713390D02*
X92948095Y-146094342D01*
X92948095Y-146094342D02*
X92995714Y-146189580D01*
X92995714Y-146189580D02*
X93043333Y-146237200D01*
X93043333Y-146237200D02*
X93138571Y-146284819D01*
X93138571Y-146284819D02*
X93329047Y-146284819D01*
X93329047Y-146284819D02*
X93424285Y-146237200D01*
X93424285Y-146237200D02*
X93471904Y-146189580D01*
X93471904Y-146189580D02*
X93519523Y-146094342D01*
X93519523Y-146094342D02*
X93519523Y-145856247D01*
X93519523Y-145856247D02*
X93471904Y-145761009D01*
X93471904Y-145761009D02*
X93424285Y-145713390D01*
X93424285Y-145713390D02*
X93329047Y-145665771D01*
X93329047Y-145665771D02*
X93138571Y-145665771D01*
X93138571Y-145665771D02*
X93043333Y-145713390D01*
X93043333Y-145713390D02*
X92995714Y-145761009D01*
X92995714Y-145761009D02*
X92948095Y-145856247D01*
X125484819Y-124626666D02*
X125008628Y-124959999D01*
X125484819Y-125198094D02*
X124484819Y-125198094D01*
X124484819Y-125198094D02*
X124484819Y-124817142D01*
X124484819Y-124817142D02*
X124532438Y-124721904D01*
X124532438Y-124721904D02*
X124580057Y-124674285D01*
X124580057Y-124674285D02*
X124675295Y-124626666D01*
X124675295Y-124626666D02*
X124818152Y-124626666D01*
X124818152Y-124626666D02*
X124913390Y-124674285D01*
X124913390Y-124674285D02*
X124961009Y-124721904D01*
X124961009Y-124721904D02*
X125008628Y-124817142D01*
X125008628Y-124817142D02*
X125008628Y-125198094D01*
X124484819Y-123721904D02*
X124484819Y-124198094D01*
X124484819Y-124198094D02*
X124961009Y-124245713D01*
X124961009Y-124245713D02*
X124913390Y-124198094D01*
X124913390Y-124198094D02*
X124865771Y-124102856D01*
X124865771Y-124102856D02*
X124865771Y-123864761D01*
X124865771Y-123864761D02*
X124913390Y-123769523D01*
X124913390Y-123769523D02*
X124961009Y-123721904D01*
X124961009Y-123721904D02*
X125056247Y-123674285D01*
X125056247Y-123674285D02*
X125294342Y-123674285D01*
X125294342Y-123674285D02*
X125389580Y-123721904D01*
X125389580Y-123721904D02*
X125437200Y-123769523D01*
X125437200Y-123769523D02*
X125484819Y-123864761D01*
X125484819Y-123864761D02*
X125484819Y-124102856D01*
X125484819Y-124102856D02*
X125437200Y-124198094D01*
X125437200Y-124198094D02*
X125389580Y-124245713D01*
X148124759Y-132413333D02*
X148124759Y-132746666D01*
X148648569Y-132746666D02*
X147648569Y-132746666D01*
X147648569Y-132746666D02*
X147648569Y-132270476D01*
X147743807Y-131937142D02*
X147696188Y-131889523D01*
X147696188Y-131889523D02*
X147648569Y-131794285D01*
X147648569Y-131794285D02*
X147648569Y-131556190D01*
X147648569Y-131556190D02*
X147696188Y-131460952D01*
X147696188Y-131460952D02*
X147743807Y-131413333D01*
X147743807Y-131413333D02*
X147839045Y-131365714D01*
X147839045Y-131365714D02*
X147934283Y-131365714D01*
X147934283Y-131365714D02*
X148077140Y-131413333D01*
X148077140Y-131413333D02*
X148648569Y-131984761D01*
X148648569Y-131984761D02*
X148648569Y-131365714D01*
X110244819Y-124626666D02*
X109768628Y-124959999D01*
X110244819Y-125198094D02*
X109244819Y-125198094D01*
X109244819Y-125198094D02*
X109244819Y-124817142D01*
X109244819Y-124817142D02*
X109292438Y-124721904D01*
X109292438Y-124721904D02*
X109340057Y-124674285D01*
X109340057Y-124674285D02*
X109435295Y-124626666D01*
X109435295Y-124626666D02*
X109578152Y-124626666D01*
X109578152Y-124626666D02*
X109673390Y-124674285D01*
X109673390Y-124674285D02*
X109721009Y-124721904D01*
X109721009Y-124721904D02*
X109768628Y-124817142D01*
X109768628Y-124817142D02*
X109768628Y-125198094D01*
X109244819Y-124293332D02*
X109244819Y-123674285D01*
X109244819Y-123674285D02*
X109625771Y-124007618D01*
X109625771Y-124007618D02*
X109625771Y-123864761D01*
X109625771Y-123864761D02*
X109673390Y-123769523D01*
X109673390Y-123769523D02*
X109721009Y-123721904D01*
X109721009Y-123721904D02*
X109816247Y-123674285D01*
X109816247Y-123674285D02*
X110054342Y-123674285D01*
X110054342Y-123674285D02*
X110149580Y-123721904D01*
X110149580Y-123721904D02*
X110197200Y-123769523D01*
X110197200Y-123769523D02*
X110244819Y-123864761D01*
X110244819Y-123864761D02*
X110244819Y-124150475D01*
X110244819Y-124150475D02*
X110197200Y-124245713D01*
X110197200Y-124245713D02*
X110149580Y-124293332D01*
X117864819Y-124626666D02*
X117388628Y-124959999D01*
X117864819Y-125198094D02*
X116864819Y-125198094D01*
X116864819Y-125198094D02*
X116864819Y-124817142D01*
X116864819Y-124817142D02*
X116912438Y-124721904D01*
X116912438Y-124721904D02*
X116960057Y-124674285D01*
X116960057Y-124674285D02*
X117055295Y-124626666D01*
X117055295Y-124626666D02*
X117198152Y-124626666D01*
X117198152Y-124626666D02*
X117293390Y-124674285D01*
X117293390Y-124674285D02*
X117341009Y-124721904D01*
X117341009Y-124721904D02*
X117388628Y-124817142D01*
X117388628Y-124817142D02*
X117388628Y-125198094D01*
X117198152Y-123769523D02*
X117864819Y-123769523D01*
X116817200Y-124007618D02*
X117531485Y-124245713D01*
X117531485Y-124245713D02*
X117531485Y-123626666D01*
X82369819Y-48902857D02*
X81893628Y-49236190D01*
X82369819Y-49474285D02*
X81369819Y-49474285D01*
X81369819Y-49474285D02*
X81369819Y-49093333D01*
X81369819Y-49093333D02*
X81417438Y-48998095D01*
X81417438Y-48998095D02*
X81465057Y-48950476D01*
X81465057Y-48950476D02*
X81560295Y-48902857D01*
X81560295Y-48902857D02*
X81703152Y-48902857D01*
X81703152Y-48902857D02*
X81798390Y-48950476D01*
X81798390Y-48950476D02*
X81846009Y-48998095D01*
X81846009Y-48998095D02*
X81893628Y-49093333D01*
X81893628Y-49093333D02*
X81893628Y-49474285D01*
X82369819Y-47950476D02*
X82369819Y-48521904D01*
X82369819Y-48236190D02*
X81369819Y-48236190D01*
X81369819Y-48236190D02*
X81512676Y-48331428D01*
X81512676Y-48331428D02*
X81607914Y-48426666D01*
X81607914Y-48426666D02*
X81655533Y-48521904D01*
X81369819Y-47331428D02*
X81369819Y-47236190D01*
X81369819Y-47236190D02*
X81417438Y-47140952D01*
X81417438Y-47140952D02*
X81465057Y-47093333D01*
X81465057Y-47093333D02*
X81560295Y-47045714D01*
X81560295Y-47045714D02*
X81750771Y-46998095D01*
X81750771Y-46998095D02*
X81988866Y-46998095D01*
X81988866Y-46998095D02*
X82179342Y-47045714D01*
X82179342Y-47045714D02*
X82274580Y-47093333D01*
X82274580Y-47093333D02*
X82322200Y-47140952D01*
X82322200Y-47140952D02*
X82369819Y-47236190D01*
X82369819Y-47236190D02*
X82369819Y-47331428D01*
X82369819Y-47331428D02*
X82322200Y-47426666D01*
X82322200Y-47426666D02*
X82274580Y-47474285D01*
X82274580Y-47474285D02*
X82179342Y-47521904D01*
X82179342Y-47521904D02*
X81988866Y-47569523D01*
X81988866Y-47569523D02*
X81750771Y-47569523D01*
X81750771Y-47569523D02*
X81560295Y-47521904D01*
X81560295Y-47521904D02*
X81465057Y-47474285D01*
X81465057Y-47474285D02*
X81417438Y-47426666D01*
X81417438Y-47426666D02*
X81369819Y-47331428D01*
X127545180Y-138938095D02*
X126735657Y-138938095D01*
X126735657Y-138938095D02*
X126640419Y-138985714D01*
X126640419Y-138985714D02*
X126592800Y-139033333D01*
X126592800Y-139033333D02*
X126545180Y-139128571D01*
X126545180Y-139128571D02*
X126545180Y-139319047D01*
X126545180Y-139319047D02*
X126592800Y-139414285D01*
X126592800Y-139414285D02*
X126640419Y-139461904D01*
X126640419Y-139461904D02*
X126735657Y-139509523D01*
X126735657Y-139509523D02*
X127545180Y-139509523D01*
X127545180Y-140461904D02*
X127545180Y-139985714D01*
X127545180Y-139985714D02*
X127068990Y-139938095D01*
X127068990Y-139938095D02*
X127116609Y-139985714D01*
X127116609Y-139985714D02*
X127164228Y-140080952D01*
X127164228Y-140080952D02*
X127164228Y-140319047D01*
X127164228Y-140319047D02*
X127116609Y-140414285D01*
X127116609Y-140414285D02*
X127068990Y-140461904D01*
X127068990Y-140461904D02*
X126973752Y-140509523D01*
X126973752Y-140509523D02*
X126735657Y-140509523D01*
X126735657Y-140509523D02*
X126640419Y-140461904D01*
X126640419Y-140461904D02*
X126592800Y-140414285D01*
X126592800Y-140414285D02*
X126545180Y-140319047D01*
X126545180Y-140319047D02*
X126545180Y-140080952D01*
X126545180Y-140080952D02*
X126592800Y-139985714D01*
X126592800Y-139985714D02*
X126640419Y-139938095D01*
X93646666Y-149394759D02*
X93313333Y-149394759D01*
X93313333Y-149918569D02*
X93313333Y-148918569D01*
X93313333Y-148918569D02*
X93789523Y-148918569D01*
X94075238Y-148918569D02*
X94694285Y-148918569D01*
X94694285Y-148918569D02*
X94360952Y-149299521D01*
X94360952Y-149299521D02*
X94503809Y-149299521D01*
X94503809Y-149299521D02*
X94599047Y-149347140D01*
X94599047Y-149347140D02*
X94646666Y-149394759D01*
X94646666Y-149394759D02*
X94694285Y-149489997D01*
X94694285Y-149489997D02*
X94694285Y-149728092D01*
X94694285Y-149728092D02*
X94646666Y-149823330D01*
X94646666Y-149823330D02*
X94599047Y-149870950D01*
X94599047Y-149870950D02*
X94503809Y-149918569D01*
X94503809Y-149918569D02*
X94218095Y-149918569D01*
X94218095Y-149918569D02*
X94122857Y-149870950D01*
X94122857Y-149870950D02*
X94075238Y-149823330D01*
X149526666Y-149394759D02*
X149193333Y-149394759D01*
X149193333Y-149918569D02*
X149193333Y-148918569D01*
X149193333Y-148918569D02*
X149669523Y-148918569D01*
X150526666Y-148918569D02*
X150050476Y-148918569D01*
X150050476Y-148918569D02*
X150002857Y-149394759D01*
X150002857Y-149394759D02*
X150050476Y-149347140D01*
X150050476Y-149347140D02*
X150145714Y-149299521D01*
X150145714Y-149299521D02*
X150383809Y-149299521D01*
X150383809Y-149299521D02*
X150479047Y-149347140D01*
X150479047Y-149347140D02*
X150526666Y-149394759D01*
X150526666Y-149394759D02*
X150574285Y-149489997D01*
X150574285Y-149489997D02*
X150574285Y-149728092D01*
X150574285Y-149728092D02*
X150526666Y-149823330D01*
X150526666Y-149823330D02*
X150479047Y-149870950D01*
X150479047Y-149870950D02*
X150383809Y-149918569D01*
X150383809Y-149918569D02*
X150145714Y-149918569D01*
X150145714Y-149918569D02*
X150050476Y-149870950D01*
X150050476Y-149870950D02*
X150002857Y-149823330D01*
X72763095Y-107134819D02*
X72763095Y-106611009D01*
X72763095Y-106611009D02*
X72715476Y-106515771D01*
X72715476Y-106515771D02*
X72620238Y-106468152D01*
X72620238Y-106468152D02*
X72429762Y-106468152D01*
X72429762Y-106468152D02*
X72334524Y-106515771D01*
X72763095Y-107087200D02*
X72667857Y-107134819D01*
X72667857Y-107134819D02*
X72429762Y-107134819D01*
X72429762Y-107134819D02*
X72334524Y-107087200D01*
X72334524Y-107087200D02*
X72286905Y-106991961D01*
X72286905Y-106991961D02*
X72286905Y-106896723D01*
X72286905Y-106896723D02*
X72334524Y-106801485D01*
X72334524Y-106801485D02*
X72429762Y-106753866D01*
X72429762Y-106753866D02*
X72667857Y-106753866D01*
X72667857Y-106753866D02*
X72763095Y-106706247D01*
X73144048Y-106134819D02*
X73763095Y-106134819D01*
X73763095Y-106134819D02*
X73429762Y-106515771D01*
X73429762Y-106515771D02*
X73572619Y-106515771D01*
X73572619Y-106515771D02*
X73667857Y-106563390D01*
X73667857Y-106563390D02*
X73715476Y-106611009D01*
X73715476Y-106611009D02*
X73763095Y-106706247D01*
X73763095Y-106706247D02*
X73763095Y-106944342D01*
X73763095Y-106944342D02*
X73715476Y-107039580D01*
X73715476Y-107039580D02*
X73667857Y-107087200D01*
X73667857Y-107087200D02*
X73572619Y-107134819D01*
X73572619Y-107134819D02*
X73286905Y-107134819D01*
X73286905Y-107134819D02*
X73191667Y-107087200D01*
X73191667Y-107087200D02*
X73144048Y-107039580D01*
D12*
%TO.C,F6*%
X181230000Y-119880000D02*
X171830000Y-119880000D01*
X181230000Y-119880000D02*
X181230000Y-144280000D01*
X171830000Y-119880000D02*
X171830000Y-144280000D01*
X181230000Y-144280000D02*
X171830000Y-144280000D01*
D13*
X176531000Y-132036000D02*
G75*
G02*
X177262000Y-132036000I365500J-633000D01*
G01*
X176531000Y-132036000D02*
G75*
G02*
X175800000Y-132036000I-365500J633001D01*
G01*
D14*
%TO.C,U4*%
X119507000Y-132651500D02*
G75*
G02*
X119253000Y-132651500I-127000J0D01*
G01*
X119253000Y-132651500D02*
G75*
G02*
X119507000Y-132651500I127000J0D01*
G01*
X121920000Y-144970500D02*
X121920000Y-134429500D01*
X121920000Y-134429500D02*
X116840000Y-134429500D01*
X120650000Y-134556500D02*
X120650000Y-144843500D01*
X116840000Y-144970500D02*
X121920000Y-144970500D01*
X116840000Y-134429500D02*
X116840000Y-144970500D01*
D15*
%TO.C,C5*%
X88420000Y-51260000D02*
X88420000Y-45260000D01*
X89463500Y-45260000D02*
X88420000Y-45260000D01*
X89463500Y-51260000D02*
X88420000Y-51260000D01*
X91920000Y-45260000D02*
X90876500Y-45260000D01*
X91920000Y-45260000D02*
X91920000Y-51260000D01*
X91920000Y-51260000D02*
X90876500Y-51260000D01*
%TO.C,C6*%
X91920000Y-66500000D02*
X90876500Y-66500000D01*
X91920000Y-60500000D02*
X91920000Y-66500000D01*
X91920000Y-60500000D02*
X90876500Y-60500000D01*
X89463500Y-66500000D02*
X88420000Y-66500000D01*
X89463500Y-60500000D02*
X88420000Y-60500000D01*
X88420000Y-66500000D02*
X88420000Y-60500000D01*
D12*
%TO.C,a2*%
X63063000Y-46803500D02*
X74516000Y-46803500D01*
X63063000Y-64956500D02*
X63063000Y-46803500D01*
X74516000Y-46803500D02*
X74516000Y-64956500D01*
X74516000Y-64956500D02*
X63063000Y-64956500D01*
D15*
X65789500Y-46880000D02*
X71789500Y-46880000D01*
X71789500Y-41880000D01*
X65789500Y-41880000D01*
X65789500Y-46880000D01*
X65789500Y-69880000D02*
X71789500Y-69880000D01*
X71789500Y-64880000D01*
X65789500Y-64880000D01*
X65789500Y-69880000D01*
D16*
G36*
X72813188Y-65982812D02*
G01*
X72823000Y-66006500D01*
X72813188Y-66030188D01*
X72789500Y-66040000D01*
X72765812Y-66030188D01*
X72756000Y-66006500D01*
X72765812Y-65982812D01*
X72789500Y-65973000D01*
X72813188Y-65982812D01*
G37*
D15*
%TO.C,C1*%
X91920000Y-121460000D02*
X91920000Y-127460000D01*
X90876500Y-127460000D02*
X91920000Y-127460000D01*
X90876500Y-121460000D02*
X91920000Y-121460000D01*
X88420000Y-127460000D02*
X89463500Y-127460000D01*
X88420000Y-127460000D02*
X88420000Y-121460000D01*
X88420000Y-121460000D02*
X89463500Y-121460000D01*
%TO.C,C2*%
X91920000Y-106220000D02*
X91920000Y-112220000D01*
X90876500Y-112220000D02*
X91920000Y-112220000D01*
X90876500Y-106220000D02*
X91920000Y-106220000D01*
X88420000Y-112220000D02*
X89463500Y-112220000D01*
X88420000Y-112220000D02*
X88420000Y-106220000D01*
X88420000Y-106220000D02*
X89463500Y-106220000D01*
%TO.C,C4*%
X88420000Y-81740000D02*
X88420000Y-75740000D01*
X89463500Y-75740000D02*
X88420000Y-75740000D01*
X89463500Y-81740000D02*
X88420000Y-81740000D01*
X91920000Y-75740000D02*
X90876500Y-75740000D01*
X91920000Y-75740000D02*
X91920000Y-81740000D01*
X91920000Y-81740000D02*
X90876500Y-81740000D01*
%TO.C,R1*%
X141097000Y-127635000D02*
X143383000Y-127635000D01*
X143383000Y-121158000D01*
X141097000Y-121158000D01*
X141097000Y-127635000D01*
X142240000Y-127762000D02*
X142240000Y-128524000D01*
X142240000Y-121158000D02*
X142240000Y-120396000D01*
D14*
%TO.C,U2*%
X132080000Y-134429500D02*
X132080000Y-144970500D01*
X132080000Y-144970500D02*
X137160000Y-144970500D01*
X135890000Y-134556500D02*
X135890000Y-144843500D01*
X137160000Y-134429500D02*
X132080000Y-134429500D01*
X137160000Y-144970500D02*
X137160000Y-134429500D01*
X134747000Y-132651500D02*
G75*
G02*
X134493000Y-132651500I-127000J0D01*
G01*
X134493000Y-132651500D02*
G75*
G02*
X134747000Y-132651500I127000J0D01*
G01*
D15*
%TO.C,R7*%
X83820000Y-105918000D02*
X83820000Y-105156000D01*
X83820000Y-112522000D02*
X83820000Y-113284000D01*
X82677000Y-112395000D02*
X84963000Y-112395000D01*
X84963000Y-105918000D01*
X82677000Y-105918000D01*
X82677000Y-112395000D01*
D12*
%TO.C,F4*%
X109720000Y-150240000D02*
X109720000Y-159640000D01*
X109720000Y-150240000D02*
X134120000Y-150240000D01*
X109720000Y-159640000D02*
X134120000Y-159640000D01*
X134120000Y-150240000D02*
X134120000Y-159640000D01*
D13*
X121876000Y-154939000D02*
G75*
G02*
X121876000Y-154208000I633000J365500D01*
G01*
X121876000Y-154939000D02*
G75*
G02*
X121876000Y-155670000I-633001J-365500D01*
G01*
D15*
%TO.C,R8*%
X83820000Y-97331500D02*
X83820000Y-98093500D01*
X83820000Y-90727500D02*
X83820000Y-89965500D01*
X82677000Y-97204500D02*
X84963000Y-97204500D01*
X84963000Y-90727500D01*
X82677000Y-90727500D01*
X82677000Y-97204500D01*
D12*
%TO.C,F1*%
X160400000Y-119880000D02*
X169800000Y-119880000D01*
X160400000Y-144280000D02*
X160400000Y-119880000D01*
X160400000Y-144280000D02*
X169800000Y-144280000D01*
X169800000Y-144280000D02*
X169800000Y-119880000D01*
D13*
X165099000Y-132124000D02*
G75*
G02*
X164368000Y-132124000I-365500J633000D01*
G01*
X165099000Y-132124000D02*
G75*
G02*
X165830000Y-132124000I365500J-633001D01*
G01*
D15*
%TO.C,R14*%
X83820000Y-143142000D02*
X83820000Y-143904000D01*
X83820000Y-136538000D02*
X83820000Y-135776000D01*
X82677000Y-143015000D02*
X84963000Y-143015000D01*
X84963000Y-136538000D01*
X82677000Y-136538000D01*
X82677000Y-143015000D01*
%TO.C,R9*%
X83820000Y-75438000D02*
X83820000Y-74676000D01*
X83820000Y-82042000D02*
X83820000Y-82804000D01*
X82677000Y-81915000D02*
X84963000Y-81915000D01*
X84963000Y-75438000D01*
X82677000Y-75438000D01*
X82677000Y-81915000D01*
D12*
%TO.C,a4*%
X62853500Y-77283500D02*
X74306500Y-77283500D01*
X62853500Y-95436500D02*
X62853500Y-77283500D01*
X74306500Y-77283500D02*
X74306500Y-95436500D01*
X74306500Y-95436500D02*
X62853500Y-95436500D01*
D15*
X65580000Y-77360000D02*
X71580000Y-77360000D01*
X71580000Y-72360000D01*
X65580000Y-72360000D01*
X65580000Y-77360000D01*
X65580000Y-100360000D02*
X71580000Y-100360000D01*
X71580000Y-95360000D01*
X65580000Y-95360000D01*
X65580000Y-100360000D01*
D16*
G36*
X72603688Y-96462812D02*
G01*
X72613500Y-96486500D01*
X72603688Y-96510188D01*
X72580000Y-96520000D01*
X72556312Y-96510188D01*
X72546500Y-96486500D01*
X72556312Y-96462812D01*
X72580000Y-96453000D01*
X72603688Y-96462812D01*
G37*
D14*
%TO.C,U3*%
X109220000Y-134429500D02*
X109220000Y-144970500D01*
X109220000Y-144970500D02*
X114300000Y-144970500D01*
X113030000Y-134556500D02*
X113030000Y-144843500D01*
X114300000Y-134429500D02*
X109220000Y-134429500D01*
X114300000Y-144970500D02*
X114300000Y-134429500D01*
X111887000Y-132651500D02*
G75*
G02*
X111633000Y-132651500I-127000J0D01*
G01*
X111633000Y-132651500D02*
G75*
G02*
X111887000Y-132651500I127000J0D01*
G01*
D15*
%TO.C,C3*%
X91920000Y-96980000D02*
X90876500Y-96980000D01*
X91920000Y-90980000D02*
X91920000Y-96980000D01*
X91920000Y-90980000D02*
X90876500Y-90980000D01*
X89463500Y-96980000D02*
X88420000Y-96980000D01*
X89463500Y-90980000D02*
X88420000Y-90980000D01*
X88420000Y-96980000D02*
X88420000Y-90980000D01*
%TO.C,R11*%
X83820000Y-60198000D02*
X83820000Y-59436000D01*
X83820000Y-66802000D02*
X83820000Y-67564000D01*
X82677000Y-66675000D02*
X84963000Y-66675000D01*
X84963000Y-60198000D01*
X82677000Y-60198000D01*
X82677000Y-66675000D01*
D14*
%TO.C,U1*%
X139700000Y-134429500D02*
X139700000Y-144970500D01*
X139700000Y-144970500D02*
X144780000Y-144970500D01*
X143510000Y-134556500D02*
X143510000Y-144843500D01*
X144780000Y-134429500D02*
X139700000Y-134429500D01*
X144780000Y-144970500D02*
X144780000Y-134429500D01*
X142367000Y-132651500D02*
G75*
G02*
X142113000Y-132651500I-127000J0D01*
G01*
X142113000Y-132651500D02*
G75*
G02*
X142367000Y-132651500I127000J0D01*
G01*
D15*
%TO.C,R6*%
X83820000Y-121158000D02*
X83820000Y-120396000D01*
X83820000Y-127762000D02*
X83820000Y-128524000D01*
X82677000Y-127635000D02*
X84963000Y-127635000D01*
X84963000Y-121158000D01*
X82677000Y-121158000D01*
X82677000Y-127635000D01*
%TO.C,R12*%
X97663000Y-121285000D02*
X95377000Y-121285000D01*
X95377000Y-127762000D01*
X97663000Y-127762000D01*
X97663000Y-121285000D01*
X96520000Y-127762000D02*
X96520000Y-128524000D01*
X96520000Y-121158000D02*
X96520000Y-120396000D01*
%TO.C,C7*%
X99850000Y-136700000D02*
X100893500Y-136700000D01*
X99850000Y-142700000D02*
X99850000Y-136700000D01*
X99850000Y-142700000D02*
X100893500Y-142700000D01*
X102306500Y-136700000D02*
X103350000Y-136700000D01*
X102306500Y-142700000D02*
X103350000Y-142700000D01*
X103350000Y-136700000D02*
X103350000Y-142700000D01*
D17*
%TO.C,U7*%
X146770000Y-40700000D02*
G75*
G02*
X146570000Y-40700000I-100000J0D01*
G01*
X146570000Y-40700000D02*
G75*
G02*
X146770000Y-40700000I100000J0D01*
G01*
D18*
X178410000Y-109200000D02*
G75*
G02*
X176410000Y-111200000I-2000000J0D01*
G01*
X176410000Y-41200000D02*
G75*
G02*
X178410000Y-43200000I1J-1999999D01*
G01*
X99910000Y-111200000D02*
G75*
G02*
X97910000Y-109200000I0J2000000D01*
G01*
X97910000Y-43200000D02*
G75*
G02*
X99910000Y-41200000I1999999J1D01*
G01*
X178410000Y-43200000D02*
X178410000Y-109200000D01*
X176410000Y-41200000D02*
X99910000Y-41200000D01*
X99910000Y-111200000D02*
X176410000Y-111200000D01*
X97910000Y-89700000D02*
X97910000Y-109200000D01*
X97910000Y-52700000D02*
X95910000Y-54700000D01*
X97910000Y-43200000D02*
X97910000Y-52700000D01*
X95910000Y-87700000D02*
X97910000Y-89700000D01*
X95910000Y-54700000D02*
X95910000Y-87700000D01*
%TO.C,R2*%
D15*
X133477000Y-127635000D02*
X135763000Y-127635000D01*
X135763000Y-121158000D01*
X133477000Y-121158000D01*
X133477000Y-127635000D01*
X134620000Y-127762000D02*
X134620000Y-128524000D01*
X134620000Y-121158000D02*
X134620000Y-120396000D01*
%TO.C,R13*%
X102743000Y-121285000D02*
X100457000Y-121285000D01*
X100457000Y-127762000D01*
X102743000Y-127762000D01*
X102743000Y-121285000D01*
X101600000Y-121158000D02*
X101600000Y-120396000D01*
X101600000Y-127762000D02*
X101600000Y-128524000D01*
D12*
%TO.C,a1*%
X63063000Y-138533000D02*
X74516000Y-138533000D01*
X63063000Y-156686000D02*
X63063000Y-138533000D01*
X74516000Y-138533000D02*
X74516000Y-156686000D01*
X74516000Y-156686000D02*
X63063000Y-156686000D01*
D15*
X65789500Y-138609500D02*
X71789500Y-138609500D01*
X71789500Y-133609500D01*
X65789500Y-133609500D01*
X65789500Y-138609500D01*
X65789500Y-161609500D02*
X71789500Y-161609500D01*
X71789500Y-156609500D01*
X65789500Y-156609500D01*
X65789500Y-161609500D01*
D16*
G36*
X72813188Y-157712312D02*
G01*
X72823000Y-157736000D01*
X72813188Y-157759688D01*
X72789500Y-157769500D01*
X72765812Y-157759688D01*
X72756000Y-157736000D01*
X72765812Y-157712312D01*
X72789500Y-157702500D01*
X72813188Y-157712312D01*
G37*
D19*
%TO.C,U6*%
X90060000Y-134550000D02*
X90060000Y-144830000D01*
X90060000Y-144830000D02*
X91710000Y-144830000D01*
X93710000Y-144830000D02*
X95360000Y-144830000D01*
X95360000Y-134550000D02*
X90060000Y-134550000D01*
X95360000Y-144830000D02*
X95360000Y-134550000D01*
X91710000Y-144830000D02*
G75*
G02*
X93710000Y-144830000I1000000J0D01*
G01*
D15*
%TO.C,R5*%
X127000000Y-121158000D02*
X127000000Y-120396000D01*
X127000000Y-127762000D02*
X127000000Y-128524000D01*
X125857000Y-127635000D02*
X128143000Y-127635000D01*
X128143000Y-121158000D01*
X125857000Y-121158000D01*
X125857000Y-127635000D01*
D12*
%TO.C,F2*%
X158370000Y-144280000D02*
X158370000Y-119880000D01*
X148970000Y-144280000D02*
X158370000Y-144280000D01*
X148970000Y-144280000D02*
X148970000Y-119880000D01*
X148970000Y-119880000D02*
X158370000Y-119880000D01*
D13*
X153669000Y-132124000D02*
G75*
G02*
X154400000Y-132124000I365500J-633001D01*
G01*
X153669000Y-132124000D02*
G75*
G02*
X152938000Y-132124000I-365500J633000D01*
G01*
%TO.C,R3*%
D15*
X110617000Y-127635000D02*
X112903000Y-127635000D01*
X112903000Y-121158000D01*
X110617000Y-121158000D01*
X110617000Y-127635000D01*
X111760000Y-127762000D02*
X111760000Y-128524000D01*
X111760000Y-121158000D02*
X111760000Y-120396000D01*
%TO.C,R4*%
X119380000Y-121158000D02*
X119380000Y-120396000D01*
X119380000Y-127762000D02*
X119380000Y-128524000D01*
X118237000Y-127635000D02*
X120523000Y-127635000D01*
X120523000Y-121158000D01*
X118237000Y-121158000D01*
X118237000Y-127635000D01*
%TO.C,R10*%
X83820000Y-44958000D02*
X83820000Y-44196000D01*
X83820000Y-51562000D02*
X83820000Y-52324000D01*
X82677000Y-51435000D02*
X84963000Y-51435000D01*
X84963000Y-44958000D01*
X82677000Y-44958000D01*
X82677000Y-51435000D01*
D14*
%TO.C,U5*%
X127127000Y-132651500D02*
G75*
G02*
X126873000Y-132651500I-127000J0D01*
G01*
X126873000Y-132651500D02*
G75*
G02*
X127127000Y-132651500I127000J0D01*
G01*
X129540000Y-144970500D02*
X129540000Y-134429500D01*
X129540000Y-134429500D02*
X124460000Y-134429500D01*
X128270000Y-134556500D02*
X128270000Y-144843500D01*
X124460000Y-144970500D02*
X129540000Y-144970500D01*
X124460000Y-134429500D02*
X124460000Y-144970500D01*
D13*
%TO.C,F3*%
X93936000Y-154939000D02*
G75*
G02*
X93936000Y-155670000I-633001J-365500D01*
G01*
X93936000Y-154939000D02*
G75*
G02*
X93936000Y-154208000I633000J365500D01*
G01*
D12*
X106180000Y-150240000D02*
X106180000Y-159640000D01*
X81780000Y-159640000D02*
X106180000Y-159640000D01*
X81780000Y-150240000D02*
X106180000Y-150240000D01*
X81780000Y-150240000D02*
X81780000Y-159640000D01*
D13*
%TO.C,F5*%
X149816000Y-154939000D02*
G75*
G02*
X149816000Y-155670000I-633001J-365500D01*
G01*
X149816000Y-154939000D02*
G75*
G02*
X149816000Y-154208000I633000J365500D01*
G01*
D12*
X162060000Y-150240000D02*
X162060000Y-159640000D01*
X137660000Y-159640000D02*
X162060000Y-159640000D01*
X137660000Y-150240000D02*
X162060000Y-150240000D01*
X137660000Y-150240000D02*
X137660000Y-159640000D01*
%TO.C,a3*%
X74516000Y-125916500D02*
X63063000Y-125916500D01*
X74516000Y-107763500D02*
X74516000Y-125916500D01*
X63063000Y-125916500D02*
X63063000Y-107763500D01*
X63063000Y-107763500D02*
X74516000Y-107763500D01*
D15*
X65789500Y-130840000D02*
X71789500Y-130840000D01*
X71789500Y-125840000D01*
X65789500Y-125840000D01*
X65789500Y-130840000D01*
X65789500Y-107840000D02*
X71789500Y-107840000D01*
X71789500Y-102840000D01*
X65789500Y-102840000D01*
X65789500Y-107840000D01*
D16*
G36*
X72813188Y-126942812D02*
G01*
X72823000Y-126966500D01*
X72813188Y-126990188D01*
X72789500Y-127000000D01*
X72765812Y-126990188D01*
X72756000Y-126966500D01*
X72765812Y-126942812D01*
X72789500Y-126933000D01*
X72813188Y-126942812D01*
G37*
%TD*%
%LPC*%
D20*
%TO.C,F6*%
X176530000Y-120780000D03*
X176530000Y-143380000D03*
%TD*%
D21*
%TO.C,U4*%
X119380000Y-142240000D03*
X119380000Y-139700000D03*
X119380000Y-137160000D03*
%TD*%
D22*
%TO.C,C5*%
X90170000Y-44510000D03*
X90170000Y-52010000D03*
%TD*%
%TO.C,C6*%
X90170000Y-67250000D03*
X90170000Y-59750000D03*
%TD*%
D23*
%TO.C,a2*%
X71539000Y-62631500D03*
X71539000Y-58130500D03*
X71539000Y-53629500D03*
X71539000Y-49128500D03*
X66040000Y-49128500D03*
X66040000Y-53629500D03*
X66040000Y-58130500D03*
X66040000Y-62631500D03*
%TD*%
D22*
%TO.C,C1*%
X90170000Y-128210000D03*
X90170000Y-120710000D03*
%TD*%
%TO.C,C2*%
X90170000Y-112970000D03*
X90170000Y-105470000D03*
%TD*%
%TO.C,C4*%
X90170000Y-74990000D03*
X90170000Y-82490000D03*
%TD*%
%TO.C,R1*%
X142240000Y-119210000D03*
X142240000Y-129710000D03*
%TD*%
D21*
%TO.C,U2*%
X134620000Y-137160000D03*
X134620000Y-139700000D03*
X134620000Y-142240000D03*
%TD*%
D22*
%TO.C,R7*%
X83820000Y-114470000D03*
X83820000Y-103970000D03*
%TD*%
D20*
%TO.C,F4*%
X110620000Y-154940000D03*
X133220000Y-154940000D03*
%TD*%
D22*
%TO.C,R8*%
X83820000Y-99279500D03*
X83820000Y-88779500D03*
%TD*%
D20*
%TO.C,F1*%
X165100000Y-143380000D03*
X165100000Y-120780000D03*
%TD*%
D22*
%TO.C,R14*%
X83820000Y-145090000D03*
X83820000Y-134590000D03*
%TD*%
%TO.C,R9*%
X83820000Y-83990000D03*
X83820000Y-73490000D03*
%TD*%
D23*
%TO.C,a4*%
X71329500Y-93111500D03*
X71329500Y-88610500D03*
X71329500Y-84109500D03*
X71329500Y-79608500D03*
X65830500Y-79608500D03*
X65830500Y-84109500D03*
X65830500Y-88610500D03*
X65830500Y-93111500D03*
%TD*%
D21*
%TO.C,U3*%
X111760000Y-137160000D03*
X111760000Y-139700000D03*
X111760000Y-142240000D03*
%TD*%
D22*
%TO.C,C3*%
X90170000Y-90230000D03*
X90170000Y-97730000D03*
%TD*%
%TO.C,R11*%
X83820000Y-68750000D03*
X83820000Y-58250000D03*
%TD*%
D21*
%TO.C,U1*%
X142240000Y-137160000D03*
X142240000Y-139700000D03*
X142240000Y-142240000D03*
%TD*%
D22*
%TO.C,R6*%
X83820000Y-129710000D03*
X83820000Y-119210000D03*
%TD*%
%TO.C,R12*%
X96520000Y-129710000D03*
X96520000Y-119210000D03*
%TD*%
%TO.C,C7*%
X101600000Y-143450000D03*
X101600000Y-135950000D03*
%TD*%
D24*
%TO.C,U7*%
X100950000Y-107950000D03*
X100950000Y-105410000D03*
X103490000Y-107950000D03*
X103490000Y-105410000D03*
X106030000Y-107950000D03*
X106030000Y-105410000D03*
X108570000Y-107950000D03*
X108570000Y-105410000D03*
X111110000Y-107950000D03*
X111110000Y-105410000D03*
X113650000Y-107950000D03*
X113650000Y-105410000D03*
X116190000Y-107950000D03*
X116190000Y-105410000D03*
X118730000Y-107950000D03*
X118730000Y-105410000D03*
X121270000Y-107950000D03*
X121270000Y-105410000D03*
X123810000Y-107950000D03*
X123810000Y-105410000D03*
X126350000Y-107950000D03*
X126350000Y-105410000D03*
X128890000Y-107950000D03*
X128890000Y-105410000D03*
X131430000Y-107950000D03*
X131430000Y-105410000D03*
X133970000Y-107950000D03*
X133970000Y-105410000D03*
X136510000Y-107950000D03*
X136510000Y-105410000D03*
X139050000Y-107950000D03*
X139050000Y-105410000D03*
X141590000Y-107950000D03*
X141590000Y-105410000D03*
X144130000Y-107950000D03*
X144130000Y-105410000D03*
X146670000Y-107950000D03*
X146670000Y-105410000D03*
X100950000Y-46990000D03*
X100950000Y-44450000D03*
X103490000Y-46990000D03*
X103490000Y-44450000D03*
X106030000Y-46990000D03*
X106030000Y-44450000D03*
X108570000Y-46990000D03*
X108570000Y-44450000D03*
X111110000Y-46990000D03*
X111110000Y-44450000D03*
X113650000Y-46990000D03*
X113650000Y-44450000D03*
X116190000Y-46990000D03*
X116190000Y-44450000D03*
X118730000Y-46990000D03*
X118730000Y-44450000D03*
X121270000Y-46990000D03*
X121270000Y-44450000D03*
X123810000Y-46990000D03*
X123810000Y-44450000D03*
X126350000Y-46990000D03*
X126350000Y-44450000D03*
X128890000Y-46990000D03*
X128890000Y-44450000D03*
X131430000Y-46990000D03*
X131430000Y-44450000D03*
X133970000Y-46990000D03*
X133970000Y-44450000D03*
X136510000Y-46990000D03*
X136510000Y-44450000D03*
X139050000Y-46990000D03*
X139050000Y-44450000D03*
X141590000Y-46990000D03*
X141590000Y-44450000D03*
X144130000Y-46990000D03*
X144130000Y-44450000D03*
X146670000Y-46990000D03*
D25*
X146670000Y-44450000D03*
D26*
X149210000Y-100330000D03*
X98410000Y-85090000D03*
X150480000Y-52070000D03*
%TD*%
D22*
%TO.C,R2*%
X134620000Y-119210000D03*
X134620000Y-129710000D03*
%TD*%
%TO.C,R13*%
X101600000Y-129710000D03*
X101600000Y-119210000D03*
%TD*%
D23*
%TO.C,a1*%
X71539000Y-154361000D03*
X71539000Y-149860000D03*
X71539000Y-145359000D03*
X71539000Y-140858000D03*
X66040000Y-140858000D03*
X66040000Y-145359000D03*
X66040000Y-149860000D03*
X66040000Y-154361000D03*
%TD*%
D27*
%TO.C,U6*%
X96520000Y-143500000D03*
D28*
X96520000Y-140960000D03*
X96520000Y-138420000D03*
X96520000Y-135880000D03*
X88900000Y-135880000D03*
X88900000Y-138420000D03*
X88900000Y-140960000D03*
X88900000Y-143500000D03*
%TD*%
D22*
%TO.C,R5*%
X127000000Y-129710000D03*
X127000000Y-119210000D03*
%TD*%
D20*
%TO.C,F2*%
X153670000Y-143380000D03*
X153670000Y-120780000D03*
%TD*%
D22*
%TO.C,R3*%
X111760000Y-119210000D03*
X111760000Y-129710000D03*
%TD*%
%TO.C,R4*%
X119380000Y-129710000D03*
X119380000Y-119210000D03*
%TD*%
%TO.C,R10*%
X83820000Y-53510000D03*
X83820000Y-43010000D03*
%TD*%
D21*
%TO.C,U5*%
X127000000Y-142240000D03*
X127000000Y-139700000D03*
X127000000Y-137160000D03*
%TD*%
D20*
%TO.C,F3*%
X105280000Y-154940000D03*
X82680000Y-154940000D03*
%TD*%
%TO.C,F5*%
X161160000Y-154940000D03*
X138560000Y-154940000D03*
%TD*%
D23*
%TO.C,a3*%
X71539000Y-123591500D03*
X71539000Y-119090500D03*
X71539000Y-114589500D03*
X71539000Y-110088500D03*
X66040000Y-110088500D03*
X66040000Y-114589500D03*
X66040000Y-119090500D03*
X66040000Y-123591500D03*
%TD*%
%LPD*%
M02*
