%TF.GenerationSoftware,KiCad,Pcbnew,8.0.6*%
%TF.CreationDate,2025-01-08T12:00:42-04:00*%
%TF.ProjectId,DC,44432e6b-6963-4616-945f-706362585858,rev?*%
%TF.SameCoordinates,Original*%
%TF.FileFunction,Copper,L1,Top*%
%TF.FilePolarity,Positive*%
%FSLAX46Y46*%
G04 Gerber Fmt 4.6, Leading zero omitted, Abs format (unit mm)*
G04 Created by KiCad (PCBNEW 8.0.6) date 2025-01-08 12:00:42*
%MOMM*%
%LPD*%
G01*
G04 APERTURE LIST*
%TA.AperFunction,ComponentPad*%
%ADD10C,2.100000*%
%TD*%
%TA.AperFunction,ComponentPad*%
%ADD11C,1.651000*%
%TD*%
%TA.AperFunction,ComponentPad*%
%ADD12C,1.600000*%
%TD*%
%TA.AperFunction,ComponentPad*%
%ADD13C,2.475500*%
%TD*%
%TA.AperFunction,ComponentPad*%
%ADD14C,1.524000*%
%TD*%
%TA.AperFunction,ComponentPad*%
%ADD15R,1.524000X1.524000*%
%TD*%
%TA.AperFunction,ComponentPad*%
%ADD16R,1.600000X1.600000*%
%TD*%
%TA.AperFunction,ComponentPad*%
%ADD17O,1.600000X1.600000*%
%TD*%
%TA.AperFunction,ViaPad*%
%ADD18C,0.800000*%
%TD*%
%TA.AperFunction,Conductor*%
%ADD19C,0.300000*%
%TD*%
G04 APERTURE END LIST*
D10*
%TO.P,F6,1,1*%
%TO.N,Net-(U7A-VIN)*%
X176530000Y-120780000D03*
%TO.P,F6,2,2*%
%TO.N,VCC*%
X176530000Y-143380000D03*
%TD*%
D11*
%TO.P,U4,3,S*%
%TO.N,GND*%
X119380000Y-142240000D03*
%TO.P,U4,2,D*%
%TO.N,Net-(U4-D)*%
X119380000Y-139700000D03*
%TO.P,U4,1,G*%
%TO.N,Net-(U4-G)*%
X119380000Y-137160000D03*
%TD*%
D12*
%TO.P,C5,1*%
%TO.N,GND*%
X90170000Y-44510000D03*
%TO.P,C5,2*%
%TO.N,/HazardButton*%
X90170000Y-52010000D03*
%TD*%
%TO.P,C6,2*%
%TO.N,/GearSelector*%
X90170000Y-67250000D03*
%TO.P,C6,1*%
%TO.N,GND*%
X90170000Y-59750000D03*
%TD*%
D13*
%TO.P,a2,1,1*%
%TO.N,/RSignalLightButton*%
X71539000Y-62631500D03*
%TO.P,a2,2,2*%
%TO.N,/LSignalLightButton*%
X71539000Y-58130500D03*
%TO.P,a2,3,3*%
%TO.N,/AccelIn*%
X71539000Y-53629500D03*
%TO.P,a2,4,4*%
%TO.N,/BrakePedal*%
X71539000Y-49128500D03*
%TO.P,a2,5,5*%
%TO.N,/HazardButton*%
X66040000Y-49128500D03*
%TO.P,a2,6,6*%
%TO.N,/GearSelector*%
X66040000Y-53629500D03*
%TO.P,a2,7,7*%
%TO.N,unconnected-(a2-Pad7)*%
X66040000Y-58130500D03*
%TO.P,a2,8,8*%
%TO.N,unconnected-(a2-Pad8)*%
X66040000Y-62631500D03*
%TD*%
D12*
%TO.P,C1,1*%
%TO.N,GND*%
X90170000Y-128210000D03*
%TO.P,C1,2*%
%TO.N,/RSignalLightButton*%
X90170000Y-120710000D03*
%TD*%
%TO.P,C2,1*%
%TO.N,GND*%
X90170000Y-112970000D03*
%TO.P,C2,2*%
%TO.N,/LSignalLightButton*%
X90170000Y-105470000D03*
%TD*%
%TO.P,C4,1*%
%TO.N,GND*%
X90170000Y-74990000D03*
%TO.P,C4,2*%
%TO.N,/BrakePedal*%
X90170000Y-82490000D03*
%TD*%
%TO.P,R1,2*%
%TO.N,/BrakeLightOut*%
X142240000Y-119210000D03*
%TO.P,R1,1*%
%TO.N,Net-(U1-G)*%
X142240000Y-129710000D03*
%TD*%
D11*
%TO.P,U2,1,G*%
%TO.N,Net-(U2-G)*%
X134620000Y-137160000D03*
%TO.P,U2,2,D*%
%TO.N,Net-(U2-D)*%
X134620000Y-139700000D03*
%TO.P,U2,3,S*%
%TO.N,GND*%
X134620000Y-142240000D03*
%TD*%
D12*
%TO.P,R7,1*%
%TO.N,/LSignalLightButton*%
X83820000Y-114470000D03*
%TO.P,R7,2*%
%TO.N,/+3V3*%
X83820000Y-103970000D03*
%TD*%
D10*
%TO.P,F4,1,1*%
%TO.N,/DRLRightNeg*%
X110620000Y-154940000D03*
%TO.P,F4,2,2*%
%TO.N,Net-(U4-D)*%
X133220000Y-154940000D03*
%TD*%
D12*
%TO.P,R8,1*%
%TO.N,/AccelIn*%
X83820000Y-99279500D03*
%TO.P,R8,2*%
%TO.N,/+3V3*%
X83820000Y-88779500D03*
%TD*%
D10*
%TO.P,F1,1,1*%
%TO.N,/BrakeLightNeg*%
X165100000Y-143380000D03*
%TO.P,F1,2,2*%
%TO.N,Net-(U1-D)*%
X165100000Y-120780000D03*
%TD*%
D12*
%TO.P,R14,1*%
%TO.N,/CAN_H*%
X83820000Y-145090000D03*
%TO.P,R14,2*%
%TO.N,/CAN_L*%
X83820000Y-134590000D03*
%TD*%
%TO.P,R9,1*%
%TO.N,/BrakePedal*%
X83820000Y-83990000D03*
%TO.P,R9,2*%
%TO.N,/+3V3*%
X83820000Y-73490000D03*
%TD*%
D13*
%TO.P,a4,1,1*%
%TO.N,/DIExtra1*%
X71329500Y-93111500D03*
%TO.P,a4,2,2*%
%TO.N,/DIExtra2*%
X71329500Y-88610500D03*
%TO.P,a4,3,3*%
%TO.N,/DOExtra1*%
X71329500Y-84109500D03*
%TO.P,a4,4,4*%
%TO.N,/ThermalShutoff*%
X71329500Y-79608500D03*
%TO.P,a4,5,5*%
%TO.N,/UART_RX*%
X65830500Y-79608500D03*
%TO.P,a4,6,6*%
%TO.N,/UART_TX*%
X65830500Y-84109500D03*
%TO.P,a4,7,7*%
%TO.N,unconnected-(a4-Pad7)*%
X65830500Y-88610500D03*
%TO.P,a4,8,8*%
%TO.N,unconnected-(a4-Pad8)*%
X65830500Y-93111500D03*
%TD*%
D11*
%TO.P,U3,1,G*%
%TO.N,Net-(U3-G)*%
X111760000Y-137160000D03*
%TO.P,U3,2,D*%
%TO.N,Net-(U3-D)*%
X111760000Y-139700000D03*
%TO.P,U3,3,S*%
%TO.N,GND*%
X111760000Y-142240000D03*
%TD*%
D12*
%TO.P,C3,1*%
%TO.N,GND*%
X90170000Y-90230000D03*
%TO.P,C3,2*%
%TO.N,/AccelIn*%
X90170000Y-97730000D03*
%TD*%
%TO.P,R11,1*%
%TO.N,/GearSelector*%
X83820000Y-68750000D03*
%TO.P,R11,2*%
%TO.N,/+3V3*%
X83820000Y-58250000D03*
%TD*%
D11*
%TO.P,U1,1,G*%
%TO.N,Net-(U1-G)*%
X142240000Y-137160000D03*
%TO.P,U1,2,D*%
%TO.N,Net-(U1-D)*%
X142240000Y-139700000D03*
%TO.P,U1,3,S*%
%TO.N,GND*%
X142240000Y-142240000D03*
%TD*%
D12*
%TO.P,R6,1*%
%TO.N,/RSignalLightButton*%
X83820000Y-129710000D03*
%TO.P,R6,2*%
%TO.N,/+3V3*%
X83820000Y-119210000D03*
%TD*%
%TO.P,R12,2*%
%TO.N,/SupBattMonitor*%
X96520000Y-129710000D03*
%TO.P,R12,1*%
%TO.N,/SupBattery*%
X96520000Y-119210000D03*
%TD*%
%TO.P,C7,1*%
%TO.N,GND*%
X101600000Y-143450000D03*
%TO.P,C7,2*%
%TO.N,/CANTransceiver5V*%
X101600000Y-135950000D03*
%TD*%
D14*
%TO.P,U7,CN10_38,NC_CN10_38*%
%TO.N,unconnected-(U7B-NC_CN10_38-PadCN10_38)*%
X100950000Y-107950000D03*
%TO.P,U7,CN10_37,PA3*%
%TO.N,/UART_RX*%
X100950000Y-105410000D03*
%TO.P,U7,CN10_36,NC_CN10_36*%
%TO.N,unconnected-(U7B-NC_CN10_36-PadCN10_36)*%
X103490000Y-107950000D03*
%TO.P,U7,CN10_35,PA2*%
%TO.N,/UART_TX*%
X103490000Y-105410000D03*
%TO.P,U7,CN10_34,PC4*%
%TO.N,unconnected-(U7B-PC4-PadCN10_34)*%
X106030000Y-107950000D03*
%TO.P,U7,CN10_33,PA10*%
%TO.N,/ThermalShutoff*%
X106030000Y-105410000D03*
%TO.P,U7,CN10_32,AGND*%
%TO.N,unconnected-(U7B-AGND-PadCN10_32)*%
X108570000Y-107950000D03*
%TO.P,U7,CN10_31,PB3*%
%TO.N,unconnected-(U7B-PB3-PadCN10_31)*%
X108570000Y-105410000D03*
%TO.P,U7,CN10_30,PA5*%
%TO.N,/Reverse*%
X111110000Y-107950000D03*
%TO.P,U7,CN10_29,PB5*%
%TO.N,unconnected-(U7B-PB5-PadCN10_29)*%
X111110000Y-105410000D03*
%TO.P,U7,CN10_28,PA6*%
%TO.N,/Neutral*%
X113650000Y-107950000D03*
%TO.P,U7,CN10_27,PB4*%
%TO.N,unconnected-(U7B-PB4-PadCN10_27)*%
X113650000Y-105410000D03*
%TO.P,U7,CN10_26,PA7*%
%TO.N,/Drive*%
X116190000Y-107950000D03*
%TO.P,U7,CN10_25,PB10*%
%TO.N,/LSignalLightButton*%
X116190000Y-105410000D03*
%TO.P,U7,CN10_24,PB1*%
%TO.N,/RSignalLightButton*%
X118730000Y-107950000D03*
%TO.P,U7,CN10_23,PA8*%
%TO.N,/AccelIn*%
X118730000Y-105410000D03*
%TO.P,U7,CN10_22,PB2*%
%TO.N,/SupBattMonitor*%
X121270000Y-107950000D03*
%TO.P,U7,CN10_21,PA9*%
%TO.N,/BrakePedal*%
X121270000Y-105410000D03*
%TO.P,U7,CN10_20,GND_CN10_20*%
%TO.N,unconnected-(U7B-GND_CN10_20-PadCN10_20)*%
X123810000Y-107950000D03*
%TO.P,U7,CN10_19,PC7*%
%TO.N,unconnected-(U7B-PC7-PadCN10_19)*%
X123810000Y-105410000D03*
%TO.P,U7,CN10_18,PB11*%
%TO.N,/LSignalLightOut*%
X126350000Y-107950000D03*
%TO.P,U7,CN10_17,PB6*%
%TO.N,unconnected-(U7B-PB6-PadCN10_17)*%
X126350000Y-105410000D03*
%TO.P,U7,CN10_16,PB12*%
%TO.N,/DRLRightOut*%
X128890000Y-107950000D03*
%TO.P,U7,CN10_15,PB15*%
%TO.N,unconnected-(U7B-PB15-PadCN10_15)*%
X128890000Y-105410000D03*
%TO.P,U7,CN10_14,PA11*%
%TO.N,/CAN_RX*%
X131430000Y-107950000D03*
%TO.P,U7,CN10_13,PB14*%
%TO.N,unconnected-(U7B-PB14-PadCN10_13)*%
X131430000Y-105410000D03*
%TO.P,U7,CN10_12,PA12*%
%TO.N,/CAN_TX*%
X133970000Y-107950000D03*
%TO.P,U7,CN10_11,PB13*%
%TO.N,unconnected-(U7B-PB13-PadCN10_11)*%
X133970000Y-105410000D03*
%TO.P,U7,CN10_10,NC_CN10_10*%
%TO.N,unconnected-(U7B-NC_CN10_10-PadCN10_10)*%
X136510000Y-107950000D03*
%TO.P,U7,CN10_9,GND_CN10_9*%
%TO.N,GND*%
X136510000Y-105410000D03*
%TO.P,U7,CN10_8,U5V*%
%TO.N,unconnected-(U7B-U5V-PadCN10_8)*%
X139050000Y-107950000D03*
%TO.P,U7,CN10_7,AVDD*%
%TO.N,unconnected-(U7B-AVDD-PadCN10_7)*%
X139050000Y-105410000D03*
%TO.P,U7,CN10_6,PC5*%
%TO.N,/DRLLeftOut*%
X141590000Y-107950000D03*
%TO.P,U7,CN10_5,PB9*%
%TO.N,unconnected-(U7B-PB9-PadCN10_5)*%
X141590000Y-105410000D03*
%TO.P,U7,CN10_4,PC6*%
%TO.N,/RSignalLightOut*%
X144130000Y-107950000D03*
%TO.P,U7,CN10_3,PB8*%
%TO.N,unconnected-(U7B-PB8-PadCN10_3)*%
X144130000Y-105410000D03*
%TO.P,U7,CN10_2,PC8*%
%TO.N,/BrakeLightOut*%
X146670000Y-107950000D03*
%TO.P,U7,CN10_1,PC9*%
%TO.N,unconnected-(U7B-PC9-PadCN10_1)*%
X146670000Y-105410000D03*
%TO.P,U7,CN7_38,PC0*%
%TO.N,/HazardButton*%
X100950000Y-46990000D03*
%TO.P,U7,CN7_37,PC3*%
%TO.N,unconnected-(U7A-PC3-PadCN7_37)*%
X100950000Y-44450000D03*
%TO.P,U7,CN7_36,PC1*%
%TO.N,/DOExtra1*%
X103490000Y-46990000D03*
%TO.P,U7,CN7_35,PC2*%
%TO.N,unconnected-(U7A-PC2-PadCN7_35)*%
X103490000Y-44450000D03*
%TO.P,U7,CN7_34,PB0*%
%TO.N,/DIExtra2*%
X106030000Y-46990000D03*
%TO.P,U7,CN7_33,VBAT*%
%TO.N,unconnected-(U7A-VBAT-PadCN7_33)*%
X106030000Y-44450000D03*
%TO.P,U7,CN7_32,PA4*%
%TO.N,/DIExtra1*%
X108570000Y-46990000D03*
%TO.P,U7,CN7_31,PF1*%
%TO.N,unconnected-(U7A-PF1-PadCN7_31)*%
X108570000Y-44450000D03*
%TO.P,U7,CN7_30,PA1*%
%TO.N,unconnected-(U7A-PA1-PadCN7_30)*%
X111110000Y-46990000D03*
%TO.P,U7,CN7_29,PF0*%
%TO.N,unconnected-(U7A-PF0-PadCN7_29)*%
X111110000Y-44450000D03*
%TO.P,U7,CN7_28,PA0*%
%TO.N,unconnected-(U7A-PA0-PadCN7_28)*%
X113650000Y-46990000D03*
%TO.P,U7,CN7_27,PC15*%
%TO.N,unconnected-(U7A-PC15-PadCN7_27)*%
X113650000Y-44450000D03*
%TO.P,U7,CN7_26,NC_CN7_26*%
%TO.N,unconnected-(U7A-NC_CN7_26-PadCN7_26)*%
X116190000Y-46990000D03*
%TO.P,U7,CN7_25,PC14*%
%TO.N,unconnected-(U7A-PC14-PadCN7_25)*%
X116190000Y-44450000D03*
%TO.P,U7,CN7_24,VIN*%
%TO.N,Net-(U7A-VIN)*%
X118730000Y-46990000D03*
%TO.P,U7,CN7_23,PC13*%
%TO.N,unconnected-(U7A-PC13-PadCN7_23)*%
X118730000Y-44450000D03*
%TO.P,U7,CN7_22,GND_CN7_22*%
%TO.N,GND*%
X121270000Y-46990000D03*
%TO.P,U7,CN7_21,PB7*%
%TO.N,unconnected-(U7A-PB7-PadCN7_21)*%
X121270000Y-44450000D03*
%TO.P,U7,CN7_20,GND_CN7_20*%
%TO.N,GND*%
X123810000Y-46990000D03*
%TO.P,U7,CN7_19,GND_CN7_19*%
X123810000Y-44450000D03*
%TO.P,U7,CN7_18,+5V*%
%TO.N,/CANTransceiver5V*%
X126350000Y-46990000D03*
%TO.P,U7,CN7_17,PA15*%
%TO.N,unconnected-(U7A-PA15-PadCN7_17)*%
X126350000Y-44450000D03*
%TO.P,U7,CN7_16,+3V3*%
%TO.N,/+3V3*%
X128890000Y-46990000D03*
%TO.P,U7,CN7_15,PA14*%
%TO.N,unconnected-(U7A-PA14-PadCN7_15)*%
X128890000Y-44450000D03*
%TO.P,U7,CN7_14,~{RESET}*%
%TO.N,unconnected-(U7A-~{RESET}-PadCN7_14)*%
X131430000Y-46990000D03*
%TO.P,U7,CN7_13,PA13*%
%TO.N,unconnected-(U7A-PA13-PadCN7_13)*%
X131430000Y-44450000D03*
%TO.P,U7,CN7_12,IOREF*%
%TO.N,unconnected-(U7A-IOREF-PadCN7_12)*%
X133970000Y-46990000D03*
%TO.P,U7,CN7_11,NC_CN7_11*%
%TO.N,unconnected-(U7A-NC_CN7_11-PadCN7_11)*%
X133970000Y-44450000D03*
%TO.P,U7,CN7_10,NC_CN7_10*%
%TO.N,unconnected-(U7A-NC_CN7_10-PadCN7_10)*%
X136510000Y-46990000D03*
%TO.P,U7,CN7_9,NC_CN7_9*%
%TO.N,unconnected-(U7A-NC_CN7_9-PadCN7_9)*%
X136510000Y-44450000D03*
%TO.P,U7,CN7_8,GND_CN7_8*%
%TO.N,GND*%
X139050000Y-46990000D03*
%TO.P,U7,CN7_7,BOOT0*%
%TO.N,unconnected-(U7A-BOOT0-PadCN7_7)*%
X139050000Y-44450000D03*
%TO.P,U7,CN7_6,E5V*%
%TO.N,unconnected-(U7A-E5V-PadCN7_6)*%
X141590000Y-46990000D03*
%TO.P,U7,CN7_5,VDD*%
%TO.N,unconnected-(U7A-VDD-PadCN7_5)*%
X141590000Y-44450000D03*
%TO.P,U7,CN7_4,PD2*%
%TO.N,unconnected-(U7A-PD2-PadCN7_4)*%
X144130000Y-46990000D03*
%TO.P,U7,CN7_3,PC12*%
%TO.N,unconnected-(U7A-PC12-PadCN7_3)*%
X144130000Y-44450000D03*
%TO.P,U7,CN7_2,PC11*%
%TO.N,unconnected-(U7A-PC11-PadCN7_2)*%
X146670000Y-46990000D03*
D15*
%TO.P,U7,CN7_1,PC10*%
%TO.N,unconnected-(U7A-PC10-PadCN7_1)*%
X146670000Y-44450000D03*
%TD*%
D12*
%TO.P,R2,2*%
%TO.N,/RSignalLightOut*%
X134620000Y-119210000D03*
%TO.P,R2,1*%
%TO.N,Net-(U2-G)*%
X134620000Y-129710000D03*
%TD*%
%TO.P,R13,2*%
%TO.N,GND*%
X101600000Y-129710000D03*
%TO.P,R13,1*%
%TO.N,/SupBattMonitor*%
X101600000Y-119210000D03*
%TD*%
D13*
%TO.P,a1,1,1*%
%TO.N,/BrakeLightNeg*%
X71539000Y-154361000D03*
%TO.P,a1,2,2*%
%TO.N,/RSignalLightNeg*%
X71539000Y-149860000D03*
%TO.P,a1,3,3*%
%TO.N,/LSignalLightNeg*%
X71539000Y-145359000D03*
%TO.P,a1,4,4*%
%TO.N,/DRLRightNeg*%
X71539000Y-140858000D03*
%TO.P,a1,5,5*%
%TO.N,/DRLLeftNeg*%
X66040000Y-140858000D03*
%TO.P,a1,6,6*%
%TO.N,GND*%
X66040000Y-145359000D03*
%TO.P,a1,7,7*%
X66040000Y-149860000D03*
%TO.P,a1,8,8*%
X66040000Y-154361000D03*
%TD*%
D16*
%TO.P,U6,1,TXD*%
%TO.N,/CAN_TX*%
X96520000Y-143500000D03*
D17*
%TO.P,U6,2,VSS*%
%TO.N,GND*%
X96520000Y-140960000D03*
%TO.P,U6,3,VDD*%
%TO.N,/CANTransceiver5V*%
X96520000Y-138420000D03*
%TO.P,U6,4,RXD*%
%TO.N,/CAN_RX*%
X96520000Y-135880000D03*
%TO.P,U6,5,Vref*%
%TO.N,unconnected-(U6-Vref-Pad5)*%
X88900000Y-135880000D03*
%TO.P,U6,6,CANL*%
%TO.N,/CAN_L*%
X88900000Y-138420000D03*
%TO.P,U6,7,CANH*%
%TO.N,/CAN_H*%
X88900000Y-140960000D03*
%TO.P,U6,8,Rs*%
%TO.N,GND*%
X88900000Y-143500000D03*
%TD*%
D12*
%TO.P,R5,1*%
%TO.N,Net-(U5-G)*%
X127000000Y-129710000D03*
%TO.P,R5,2*%
%TO.N,/DRLLeftOut*%
X127000000Y-119210000D03*
%TD*%
D10*
%TO.P,F2,1,1*%
%TO.N,/RSignalLightNeg*%
X153670000Y-143380000D03*
%TO.P,F2,2,2*%
%TO.N,Net-(U2-D)*%
X153670000Y-120780000D03*
%TD*%
D12*
%TO.P,R3,2*%
%TO.N,/LSignalLightOut*%
X111760000Y-119210000D03*
%TO.P,R3,1*%
%TO.N,Net-(U3-G)*%
X111760000Y-129710000D03*
%TD*%
%TO.P,R4,1*%
%TO.N,Net-(U4-G)*%
X119380000Y-129710000D03*
%TO.P,R4,2*%
%TO.N,/DRLRightOut*%
X119380000Y-119210000D03*
%TD*%
%TO.P,R10,1*%
%TO.N,/HazardButton*%
X83820000Y-53510000D03*
%TO.P,R10,2*%
%TO.N,/+3V3*%
X83820000Y-43010000D03*
%TD*%
D11*
%TO.P,U5,3,S*%
%TO.N,GND*%
X127000000Y-142240000D03*
%TO.P,U5,2,D*%
%TO.N,Net-(U5-D)*%
X127000000Y-139700000D03*
%TO.P,U5,1,G*%
%TO.N,Net-(U5-G)*%
X127000000Y-137160000D03*
%TD*%
D10*
%TO.P,F3,2,2*%
%TO.N,Net-(U3-D)*%
X105280000Y-154940000D03*
%TO.P,F3,1,1*%
%TO.N,/LSignalLightNeg*%
X82680000Y-154940000D03*
%TD*%
%TO.P,F5,2,2*%
%TO.N,Net-(U5-D)*%
X161160000Y-154940000D03*
%TO.P,F5,1,1*%
%TO.N,/DRLLeftNeg*%
X138560000Y-154940000D03*
%TD*%
D13*
%TO.P,a3,1,1*%
%TO.N,/SupBattery*%
X71539000Y-123591500D03*
%TO.P,a3,2,2*%
%TO.N,/Drive*%
X71539000Y-119090500D03*
%TO.P,a3,3,3*%
%TO.N,/Neutral*%
X71539000Y-114589500D03*
%TO.P,a3,4,4*%
%TO.N,/Reverse*%
X71539000Y-110088500D03*
%TO.P,a3,5,5*%
%TO.N,/CAN_L*%
X66040000Y-110088500D03*
%TO.P,a3,6,6*%
%TO.N,/CAN_H*%
X66040000Y-114589500D03*
%TO.P,a3,7,7*%
%TO.N,VCC*%
X66040000Y-119090500D03*
%TO.P,a3,8,8*%
%TO.N,GND*%
X66040000Y-123591500D03*
%TD*%
D18*
%TO.N,/LSignalLightButton*%
X76200000Y-58130500D03*
%TO.N,/RSignalLightButton*%
X75565000Y-62631500D03*
%TO.N,/AccelIn*%
X76835000Y-53629500D03*
%TO.N,/BrakePedal*%
X77470000Y-49128500D03*
%TO.N,/CAN_TX*%
X106045000Y-146685000D03*
%TO.N,/CANTransceiver5V*%
X104775000Y-133985000D03*
%TO.N,/CAN_RX*%
X102235000Y-132715000D03*
X104140000Y-118110000D03*
%TO.N,/CAN_TX*%
X106680000Y-118110000D03*
%TO.N,/CANTransceiver5V*%
X109220000Y-116840000D03*
%TO.N,/UART_RX*%
X93980000Y-72390000D03*
%TO.N,/UART_TX*%
X95250000Y-71120000D03*
%TO.N,/DOExtra1*%
X97155000Y-78105000D03*
%TO.N,/DIExtra2*%
X97790000Y-79375000D03*
%TO.N,/DIExtra1*%
X99060000Y-80645000D03*
%TO.N,/ThermalShutoff*%
X105410000Y-83820000D03*
%TD*%
D19*
%TO.N,/HazardButton*%
X95930000Y-52010000D02*
X90170000Y-52010000D01*
%TO.N,/LSignalLightButton*%
X114920000Y-104140000D02*
X116190000Y-105410000D01*
X90170000Y-105470000D02*
X91500000Y-104140000D01*
X91500000Y-104140000D02*
X114920000Y-104140000D01*
%TO.N,/RSignalLightButton*%
X90170000Y-119440000D02*
X90170000Y-120710000D01*
X91650000Y-117960000D02*
X90170000Y-119440000D01*
%TO.N,/GearSelector*%
X88670000Y-68750000D02*
X90170000Y-67250000D01*
X83820000Y-68750000D02*
X88670000Y-68750000D01*
%TO.N,/HazardButton*%
X88670000Y-53510000D02*
X83820000Y-53510000D01*
X90170000Y-52010000D02*
X88670000Y-53510000D01*
%TO.N,/DOExtra1*%
X77334000Y-78105000D02*
X71329500Y-84109500D01*
X97155000Y-78105000D02*
X77334000Y-78105000D01*
%TO.N,/DIExtra2*%
X80565000Y-79375000D02*
X71329500Y-88610500D01*
X97790000Y-79375000D02*
X80565000Y-79375000D01*
%TO.N,/DIExtra1*%
X83796000Y-80645000D02*
X71329500Y-93111500D01*
X99060000Y-80645000D02*
X83796000Y-80645000D01*
%TO.N,/ThermalShutoff*%
X98425000Y-76835000D02*
X105410000Y-83820000D01*
X71329500Y-79608500D02*
X74103000Y-76835000D01*
X74103000Y-76835000D02*
X98425000Y-76835000D01*
%TO.N,/HazardButton*%
X95930000Y-52010000D02*
X100950000Y-46990000D01*
%TO.N,/BrakePedal*%
X99427630Y-82490000D02*
X121270000Y-104332370D01*
X121270000Y-104332370D02*
X121270000Y-105410000D01*
X88900000Y-82490000D02*
X99427630Y-82490000D01*
%TO.N,/AccelIn*%
X111050000Y-97730000D02*
X118730000Y-105410000D01*
X88900000Y-97730000D02*
X111050000Y-97730000D01*
%TO.N,/Reverse*%
X108916000Y-110144000D02*
X111110000Y-107950000D01*
X71594500Y-110144000D02*
X108916000Y-110144000D01*
X71539000Y-110088500D02*
X71594500Y-110144000D01*
%TO.N,/Neutral*%
X110856000Y-110744000D02*
X113650000Y-107950000D01*
X75384500Y-110744000D02*
X110856000Y-110744000D01*
X71539000Y-114589500D02*
X75384500Y-110744000D01*
%TO.N,/RSignalLightButton*%
X106934000Y-112776000D02*
X113904000Y-112776000D01*
X101750000Y-117960000D02*
X106934000Y-112776000D01*
X91650000Y-117960000D02*
X101750000Y-117960000D01*
X113904000Y-112776000D02*
X118730000Y-107950000D01*
%TO.N,/SupBattMonitor*%
X121270000Y-109870000D02*
X121270000Y-107950000D01*
X107018000Y-113792000D02*
X117348000Y-113792000D01*
X101600000Y-119210000D02*
X107018000Y-113792000D01*
X117348000Y-113792000D02*
X121270000Y-109870000D01*
%TO.N,/CAN_RX*%
X124572000Y-114808000D02*
X131430000Y-107950000D01*
X107442000Y-114808000D02*
X124572000Y-114808000D01*
X104140000Y-118110000D02*
X107442000Y-114808000D01*
%TO.N,/CAN_TX*%
X126096000Y-115824000D02*
X133970000Y-107950000D01*
X108966000Y-115824000D02*
X126096000Y-115824000D01*
X106680000Y-118110000D02*
X108966000Y-115824000D01*
%TO.N,/UART_TX*%
X82550000Y-70485000D02*
X94615000Y-70485000D01*
X81915000Y-71120000D02*
X82550000Y-70485000D01*
X63500000Y-71120000D02*
X81915000Y-71120000D01*
X60960000Y-73660000D02*
X63500000Y-71120000D01*
X60960000Y-79239000D02*
X60960000Y-73660000D01*
X94615000Y-70485000D02*
X95250000Y-71120000D01*
X65830500Y-84109500D02*
X60960000Y-79239000D01*
%TO.N,/UART_RX*%
X93345000Y-71755000D02*
X93980000Y-72390000D01*
X82550000Y-71755000D02*
X93345000Y-71755000D01*
%TO.N,/RSignalLightNeg*%
X163830000Y-158750000D02*
X163830000Y-148590000D01*
X162560000Y-160020000D02*
X163830000Y-158750000D01*
X75565000Y-155575000D02*
X80010000Y-160020000D01*
X163830000Y-148590000D02*
X158620000Y-143380000D01*
X75565000Y-153886000D02*
X75565000Y-155575000D01*
X80010000Y-160020000D02*
X162560000Y-160020000D01*
X71539000Y-149860000D02*
X75565000Y-153886000D01*
X158620000Y-143380000D02*
X153670000Y-143380000D01*
%TO.N,/BrakeLightNeg*%
X165100000Y-160020000D02*
X165100000Y-143380000D01*
X163830000Y-161290000D02*
X165100000Y-160020000D01*
X78468000Y-161290000D02*
X163830000Y-161290000D01*
X71539000Y-154361000D02*
X78468000Y-161290000D01*
%TO.N,VCC*%
X64770000Y-162560000D02*
X60960000Y-158750000D01*
X170180000Y-162560000D02*
X64770000Y-162560000D01*
X60960000Y-120650000D02*
X62519500Y-119090500D01*
X62519500Y-119090500D02*
X66040000Y-119090500D01*
X176530000Y-156210000D02*
X170180000Y-162560000D01*
X60960000Y-158750000D02*
X60960000Y-120650000D01*
X176530000Y-143380000D02*
X176530000Y-156210000D01*
%TO.N,/UART_RX*%
X81915000Y-72390000D02*
X82550000Y-71755000D01*
X64135000Y-72390000D02*
X81915000Y-72390000D01*
X62865000Y-73660000D02*
X64135000Y-72390000D01*
X62865000Y-76643000D02*
X62865000Y-73660000D01*
X65830500Y-79608500D02*
X62865000Y-76643000D01*
%TO.N,/GearSelector*%
X83650000Y-68580000D02*
X83820000Y-68750000D01*
X72390000Y-68580000D02*
X83650000Y-68580000D01*
X66040000Y-69850000D02*
X71120000Y-69850000D01*
X62865000Y-66675000D02*
X66040000Y-69850000D01*
X62865000Y-54610000D02*
X62865000Y-66675000D01*
X63845500Y-53629500D02*
X62865000Y-54610000D01*
X66040000Y-53629500D02*
X63845500Y-53629500D01*
X71120000Y-69850000D02*
X72390000Y-68580000D01*
%TO.N,/CANTransceiver5V*%
X102810000Y-135950000D02*
X101600000Y-135950000D01*
X104775000Y-133985000D02*
X102810000Y-135950000D01*
%TO.N,/CAN_RX*%
X99685000Y-132715000D02*
X96520000Y-135880000D01*
X102235000Y-132715000D02*
X99685000Y-132715000D01*
%TO.N,/CAN_TX*%
X100330000Y-146685000D02*
X106045000Y-146685000D01*
X99705000Y-146685000D02*
X100330000Y-146685000D01*
X96520000Y-143500000D02*
X99705000Y-146685000D01*
%TO.N,/DRLLeftNeg*%
X132210000Y-148590000D02*
X138560000Y-154940000D01*
X75565000Y-142240000D02*
X81915000Y-148590000D01*
X75565000Y-137795000D02*
X75565000Y-142240000D01*
X81915000Y-148590000D02*
X132210000Y-148590000D01*
X71120000Y-133350000D02*
X75565000Y-137795000D01*
X67310000Y-133350000D02*
X71120000Y-133350000D01*
X66040000Y-134620000D02*
X67310000Y-133350000D01*
X66040000Y-140858000D02*
X66040000Y-134620000D01*
%TO.N,/DRLRightNeg*%
X106175000Y-150495000D02*
X110620000Y-154940000D01*
X81176000Y-150495000D02*
X106175000Y-150495000D01*
X71539000Y-140858000D02*
X81176000Y-150495000D01*
%TO.N,/LSignalLightNeg*%
X81120000Y-154940000D02*
X82680000Y-154940000D01*
X71539000Y-145359000D02*
X81120000Y-154940000D01*
%TO.N,Net-(U1-G)*%
X142240000Y-129710000D02*
X142240000Y-137160000D01*
%TO.N,Net-(U2-G)*%
X134620000Y-129710000D02*
X134620000Y-137160000D01*
%TO.N,Net-(U3-G)*%
X111760000Y-129964000D02*
X111760000Y-137414000D01*
%TO.N,Net-(U5-G)*%
X127000000Y-129710000D02*
X127000000Y-137160000D01*
%TO.N,Net-(U4-G)*%
X119380000Y-129710000D02*
X119380000Y-137160000D01*
%TO.N,/SupBattery*%
X95483500Y-123591500D02*
X71539000Y-123591500D01*
X96520000Y-122555000D02*
X95483500Y-123591500D01*
X96520000Y-119210000D02*
X96520000Y-122555000D01*
%TO.N,/HazardButton*%
X83355000Y-53510000D02*
X83820000Y-53510000D01*
X73025000Y-40640000D02*
X80645000Y-48260000D01*
X80645000Y-48260000D02*
X80645000Y-50800000D01*
X80645000Y-50800000D02*
X83355000Y-53510000D01*
X66040000Y-40640000D02*
X73025000Y-40640000D01*
X64135000Y-47223500D02*
X64135000Y-42545000D01*
X64135000Y-42545000D02*
X66040000Y-40640000D01*
X66040000Y-49128500D02*
X64135000Y-47223500D01*
%TO.N,/CANTransceiver5V*%
X98990000Y-135950000D02*
X96520000Y-138420000D01*
X101600000Y-135950000D02*
X98990000Y-135950000D01*
%TO.N,/CAN_H*%
X88900000Y-140960000D02*
X84770000Y-145090000D01*
X84770000Y-145090000D02*
X83820000Y-145090000D01*
%TO.N,/CAN_L*%
X85070000Y-134590000D02*
X88900000Y-138420000D01*
X83820000Y-134590000D02*
X85070000Y-134590000D01*
%TO.N,/AccelIn*%
X87350500Y-99279500D02*
X88900000Y-97730000D01*
X83820000Y-99279500D02*
X87350500Y-99279500D01*
%TO.N,/BrakePedal*%
X87400000Y-83990000D02*
X88900000Y-82490000D01*
X83820000Y-83990000D02*
X87400000Y-83990000D01*
X71539000Y-49128500D02*
X77470000Y-49128500D01*
%TO.N,/RSignalLightButton*%
X71539000Y-62631500D02*
X75565000Y-62631500D01*
%TO.N,/AccelIn*%
X71539000Y-53629500D02*
X76835000Y-53629500D01*
%TO.N,/LSignalLightButton*%
X71539000Y-58130500D02*
X76200000Y-58130500D01*
%TO.N,/Drive*%
X112380000Y-111760000D02*
X116190000Y-107950000D01*
X106680000Y-111760000D02*
X112380000Y-111760000D01*
X82550000Y-116840000D02*
X101600000Y-116840000D01*
X80299500Y-119090500D02*
X82550000Y-116840000D01*
X101600000Y-116840000D02*
X106680000Y-111760000D01*
X71539000Y-119090500D02*
X80299500Y-119090500D01*
%TO.N,/CANTransceiver5V*%
X148590000Y-104140000D02*
X126350000Y-81900000D01*
X148590000Y-110490000D02*
X148590000Y-104140000D01*
X142240000Y-116840000D02*
X148590000Y-110490000D01*
X109220000Y-116840000D02*
X142240000Y-116840000D01*
X126350000Y-81900000D02*
X126350000Y-46990000D01*
%TD*%
M02*
