%TF.GenerationSoftware,KiCad,Pcbnew,8.0.6*%
%TF.CreationDate,2025-01-08T12:00:42-04:00*%
%TF.ProjectId,DC,44432e6b-6963-4616-945f-706362585858,rev?*%
%TF.SameCoordinates,Original*%
%TF.FileFunction,Soldermask,Top*%
%TF.FilePolarity,Negative*%
%FSLAX46Y46*%
G04 Gerber Fmt 4.6, Leading zero omitted, Abs format (unit mm)*
G04 Created by KiCad (PCBNEW 8.0.6) date 2025-01-08 12:00:42*
%MOMM*%
%LPD*%
G01*
G04 APERTURE LIST*
G04 Aperture macros list*
%AMRoundRect*
0 Rectangle with rounded corners*
0 $1 Rounding radius*
0 $2 $3 $4 $5 $6 $7 $8 $9 X,Y pos of 4 corners*
0 Add a 4 corners polygon primitive as box body*
4,1,4,$2,$3,$4,$5,$6,$7,$8,$9,$2,$3,0*
0 Add four circle primitives for the rounded corners*
1,1,$1+$1,$2,$3*
1,1,$1+$1,$4,$5*
1,1,$1+$1,$6,$7*
1,1,$1+$1,$8,$9*
0 Add four rect primitives between the rounded corners*
20,1,$1+$1,$2,$3,$4,$5,0*
20,1,$1+$1,$4,$5,$6,$7,0*
20,1,$1+$1,$6,$7,$8,$9,0*
20,1,$1+$1,$8,$9,$2,$3,0*%
G04 Aperture macros list end*
%ADD10C,2.100000*%
%ADD11C,1.651000*%
%ADD12C,1.600000*%
%ADD13C,2.475500*%
%ADD14C,1.728000*%
%ADD15RoundRect,0.102000X-0.762000X0.762000X-0.762000X-0.762000X0.762000X-0.762000X0.762000X0.762000X0*%
%ADD16C,3.200000*%
%ADD17R,1.600000X1.600000*%
%ADD18O,1.600000X1.600000*%
G04 APERTURE END LIST*
D10*
%TO.C,F6*%
X176530000Y-120780000D03*
X176530000Y-143380000D03*
%TD*%
D11*
%TO.C,U4*%
X119380000Y-142240000D03*
X119380000Y-139700000D03*
X119380000Y-137160000D03*
%TD*%
D12*
%TO.C,C5*%
X90170000Y-44510000D03*
X90170000Y-52010000D03*
%TD*%
%TO.C,C6*%
X90170000Y-67250000D03*
X90170000Y-59750000D03*
%TD*%
D13*
%TO.C,a2*%
X71539000Y-62631500D03*
X71539000Y-58130500D03*
X71539000Y-53629500D03*
X71539000Y-49128500D03*
X66040000Y-49128500D03*
X66040000Y-53629500D03*
X66040000Y-58130500D03*
X66040000Y-62631500D03*
%TD*%
D12*
%TO.C,C1*%
X90170000Y-128210000D03*
X90170000Y-120710000D03*
%TD*%
%TO.C,C2*%
X90170000Y-112970000D03*
X90170000Y-105470000D03*
%TD*%
%TO.C,C4*%
X90170000Y-74990000D03*
X90170000Y-82490000D03*
%TD*%
%TO.C,R1*%
X142240000Y-119210000D03*
X142240000Y-129710000D03*
%TD*%
D11*
%TO.C,U2*%
X134620000Y-137160000D03*
X134620000Y-139700000D03*
X134620000Y-142240000D03*
%TD*%
D12*
%TO.C,R7*%
X83820000Y-114470000D03*
X83820000Y-103970000D03*
%TD*%
D10*
%TO.C,F4*%
X110620000Y-154940000D03*
X133220000Y-154940000D03*
%TD*%
D12*
%TO.C,R8*%
X83820000Y-99279500D03*
X83820000Y-88779500D03*
%TD*%
D10*
%TO.C,F1*%
X165100000Y-143380000D03*
X165100000Y-120780000D03*
%TD*%
D12*
%TO.C,R14*%
X83820000Y-145090000D03*
X83820000Y-134590000D03*
%TD*%
%TO.C,R9*%
X83820000Y-83990000D03*
X83820000Y-73490000D03*
%TD*%
D13*
%TO.C,a4*%
X71329500Y-93111500D03*
X71329500Y-88610500D03*
X71329500Y-84109500D03*
X71329500Y-79608500D03*
X65830500Y-79608500D03*
X65830500Y-84109500D03*
X65830500Y-88610500D03*
X65830500Y-93111500D03*
%TD*%
D11*
%TO.C,U3*%
X111760000Y-137160000D03*
X111760000Y-139700000D03*
X111760000Y-142240000D03*
%TD*%
D12*
%TO.C,C3*%
X90170000Y-90230000D03*
X90170000Y-97730000D03*
%TD*%
%TO.C,R11*%
X83820000Y-68750000D03*
X83820000Y-58250000D03*
%TD*%
D11*
%TO.C,U1*%
X142240000Y-137160000D03*
X142240000Y-139700000D03*
X142240000Y-142240000D03*
%TD*%
D12*
%TO.C,R6*%
X83820000Y-129710000D03*
X83820000Y-119210000D03*
%TD*%
%TO.C,R12*%
X96520000Y-129710000D03*
X96520000Y-119210000D03*
%TD*%
%TO.C,C7*%
X101600000Y-143450000D03*
X101600000Y-135950000D03*
%TD*%
D14*
%TO.C,U7*%
X100950000Y-107950000D03*
X100950000Y-105410000D03*
X103490000Y-107950000D03*
X103490000Y-105410000D03*
X106030000Y-107950000D03*
X106030000Y-105410000D03*
X108570000Y-107950000D03*
X108570000Y-105410000D03*
X111110000Y-107950000D03*
X111110000Y-105410000D03*
X113650000Y-107950000D03*
X113650000Y-105410000D03*
X116190000Y-107950000D03*
X116190000Y-105410000D03*
X118730000Y-107950000D03*
X118730000Y-105410000D03*
X121270000Y-107950000D03*
X121270000Y-105410000D03*
X123810000Y-107950000D03*
X123810000Y-105410000D03*
X126350000Y-107950000D03*
X126350000Y-105410000D03*
X128890000Y-107950000D03*
X128890000Y-105410000D03*
X131430000Y-107950000D03*
X131430000Y-105410000D03*
X133970000Y-107950000D03*
X133970000Y-105410000D03*
X136510000Y-107950000D03*
X136510000Y-105410000D03*
X139050000Y-107950000D03*
X139050000Y-105410000D03*
X141590000Y-107950000D03*
X141590000Y-105410000D03*
X144130000Y-107950000D03*
X144130000Y-105410000D03*
X146670000Y-107950000D03*
X146670000Y-105410000D03*
X100950000Y-46990000D03*
X100950000Y-44450000D03*
X103490000Y-46990000D03*
X103490000Y-44450000D03*
X106030000Y-46990000D03*
X106030000Y-44450000D03*
X108570000Y-46990000D03*
X108570000Y-44450000D03*
X111110000Y-46990000D03*
X111110000Y-44450000D03*
X113650000Y-46990000D03*
X113650000Y-44450000D03*
X116190000Y-46990000D03*
X116190000Y-44450000D03*
X118730000Y-46990000D03*
X118730000Y-44450000D03*
X121270000Y-46990000D03*
X121270000Y-44450000D03*
X123810000Y-46990000D03*
X123810000Y-44450000D03*
X126350000Y-46990000D03*
X126350000Y-44450000D03*
X128890000Y-46990000D03*
X128890000Y-44450000D03*
X131430000Y-46990000D03*
X131430000Y-44450000D03*
X133970000Y-46990000D03*
X133970000Y-44450000D03*
X136510000Y-46990000D03*
X136510000Y-44450000D03*
X139050000Y-46990000D03*
X139050000Y-44450000D03*
X141590000Y-46990000D03*
X141590000Y-44450000D03*
X144130000Y-46990000D03*
X144130000Y-44450000D03*
X146670000Y-46990000D03*
D15*
X146670000Y-44450000D03*
D16*
X149210000Y-100330000D03*
X98410000Y-85090000D03*
X150480000Y-52070000D03*
%TD*%
D12*
%TO.C,R2*%
X134620000Y-119210000D03*
X134620000Y-129710000D03*
%TD*%
%TO.C,R13*%
X101600000Y-129710000D03*
X101600000Y-119210000D03*
%TD*%
D13*
%TO.C,a1*%
X71539000Y-154361000D03*
X71539000Y-149860000D03*
X71539000Y-145359000D03*
X71539000Y-140858000D03*
X66040000Y-140858000D03*
X66040000Y-145359000D03*
X66040000Y-149860000D03*
X66040000Y-154361000D03*
%TD*%
D17*
%TO.C,U6*%
X96520000Y-143500000D03*
D18*
X96520000Y-140960000D03*
X96520000Y-138420000D03*
X96520000Y-135880000D03*
X88900000Y-135880000D03*
X88900000Y-138420000D03*
X88900000Y-140960000D03*
X88900000Y-143500000D03*
%TD*%
D12*
%TO.C,R5*%
X127000000Y-129710000D03*
X127000000Y-119210000D03*
%TD*%
D10*
%TO.C,F2*%
X153670000Y-143380000D03*
X153670000Y-120780000D03*
%TD*%
D12*
%TO.C,R3*%
X111760000Y-119210000D03*
X111760000Y-129710000D03*
%TD*%
%TO.C,R4*%
X119380000Y-129710000D03*
X119380000Y-119210000D03*
%TD*%
%TO.C,R10*%
X83820000Y-53510000D03*
X83820000Y-43010000D03*
%TD*%
D11*
%TO.C,U5*%
X127000000Y-142240000D03*
X127000000Y-139700000D03*
X127000000Y-137160000D03*
%TD*%
D10*
%TO.C,F3*%
X105280000Y-154940000D03*
X82680000Y-154940000D03*
%TD*%
%TO.C,F5*%
X161160000Y-154940000D03*
X138560000Y-154940000D03*
%TD*%
D13*
%TO.C,a3*%
X71539000Y-123591500D03*
X71539000Y-119090500D03*
X71539000Y-114589500D03*
X71539000Y-110088500D03*
X66040000Y-110088500D03*
X66040000Y-114589500D03*
X66040000Y-119090500D03*
X66040000Y-123591500D03*
%TD*%
M02*
